<?xml version="1.0" encoding="UTF-8" standalone="no"?>
<svg
   xmlns:dc="http://purl.org/dc/elements/1.1/"
   xmlns:cc="http://creativecommons.org/ns#"
   xmlns:rdf="http://www.w3.org/1999/02/22-rdf-syntax-ns#"
   xmlns:svg="http://www.w3.org/2000/svg"
   xmlns="http://www.w3.org/2000/svg"
   xmlns:sodipodi="http://sodipodi.sourceforge.net/DTD/sodipodi-0.dtd"
   xmlns:inkscape="http://www.inkscape.org/namespaces/inkscape"
   version="1.1"
   id="svg2"
   viewBox="0 0 267.99006 242.63476"
   height="68.476921mm"
   width="75.632751mm"
   inkscape:version="0.91 r13725"
   sodipodi:docname="burningball.svg">
  <sodipodi:namedview
     pagecolor="#ffffff"
     bordercolor="#666666"
     borderopacity="1"
     objecttolerance="10"
     gridtolerance="10"
     guidetolerance="10"
     inkscape:pageopacity="0"
     inkscape:pageshadow="2"
     inkscape:window-width="684"
     inkscape:window-height="480"
     id="namedview7"
     showgrid="false"
     inkscape:zoom="0.26641778"
     inkscape:cx="282.15306"
     inkscape:cy="429.51261"
     inkscape:window-x="0"
     inkscape:window-y="0"
     inkscape:window-maximized="0"
     inkscape:current-layer="svg2"
     fit-margin-top="5"
     fit-margin-left="5"
     fit-margin-right="5"
     fit-margin-bottom="5" />
  <defs
     id="defs4" />
  <metadata
     id="metadata7">
    <rdf:RDF>
      <cc:Work
         rdf:about="">
        <dc:format>image/svg+xml</dc:format>
        <dc:type
           rdf:resource="http://purl.org/dc/dcmitype/StillImage" />
        <dc:title></dc:title>
      </cc:Work>
    </rdf:RDF>
  </metadata>
  <g
     transform="matrix(0.78469379,0,0,0.71503406,-201.85762,-287.91217)"
     id="layer1"
     style="fill:#999999">
    <path
       id="path3347"
       d="m 421.95245,713.80991 c -4.59285,-4.87828 -6.6145,-5.44709 -11.74343,-3.30409 -4.25637,1.77844 -5.52186,1.76689 -14.30324,-0.13044 -7.11667,-1.53765 -9.4617,-2.5298 -8.97529,-3.79735 0.95785,-2.49613 -3.28092,-2.16276 -9.93693,0.7815 -4.56038,2.01727 -7.53452,2.39227 -15.47139,1.95074 -14.25014,-0.79275 -23.23459,-2.7888 -25.65109,-5.69885 -1.14145,-1.37458 -3.00655,-2.49924 -4.14467,-2.49924 -1.13812,0 -3.16449,-0.58611 -4.50303,-1.30249 -1.95497,-1.04626 -2.17605,-1.78394 -1.12384,-3.75 1.21357,-2.26759 0.8808,-2.44751 -4.52659,-2.44751 -8.38536,0 -14.81216,-2.27805 -19.00856,-6.7378 -6.03201,-6.41054 -8.29189,-16.04616 -4.42631,-18.87275 1.86224,-1.3617 1.67679,-1.91909 -1.875,-5.6357 -4.17981,-4.37376 -4.75396,-6.19141 -2.62745,-8.31794 0.91891,-0.91891 0.36279,-1.93756 -1.84898,-3.38676 -4.4277,-2.90114 -6.49288,-7.4837 -9.42311,-20.90955 -1.39815,-6.4061 -2.54209,-11.8591 -2.54209,-12.1178 0,-0.25869 1.66671,-0.10425 3.7038,0.34315 3.22129,0.70751 3.80618,0.40561 4.48963,-2.31746 0.45122,-1.79781 1.4501,-2.87605 2.34593,-2.53229 0.85806,0.32927 2.21594,-0.19156 3.01753,-1.15741 1.11743,-1.34643 0.98422,-4.20279 -0.57104,-12.24439 -2.1354,-11.04123 -2.70633,-24.8382 -1.22138,-29.51574 0.75553,-2.37989 1.22465,-2.56328 3.27744,-1.2813 3.57774,2.23434 5.41166,-0.37527 5.25004,-7.47061 l -0.13613,-5.97627 5.23459,0.41214 c 11.98848,0.94393 24.55579,-16.08532 17.25705,-23.38406 -2.30338,-2.30338 -2.28191,-2.55803 1.0276,-12.1875 4.15856,-12.09992 5.58212,-14.79791 9.11274,-17.27085 3.7424,-2.62128 5.06835,-2.44024 3.50618,0.47871 -2.36981,4.42803 -1.55507,9.85347 1.81089,12.05894 2.94676,1.93079 3.39019,1.86718 8.70764,-1.24906 6.4013,-3.75141 9.78146,-7.85394 16.30485,-19.78933 4.58078,-8.38114 9.36774,-13.43837 12.72019,-13.43837 1.34323,0 1.4494,0.56243 0.45643,2.41782 -2.02051,3.77537 -1.52902,8.76406 1.20602,12.24109 3.02452,3.84506 3.19241,8.12229 0.48124,12.26007 -1.11032,1.69456 -1.47875,3.08102 -0.81874,3.08102 1.70032,0 4.99418,-3.87535 6.39649,-7.5257 1.07913,-2.80911 1.27823,-2.88182 2.12645,-0.77654 0.53632,1.33116 0.032,5.19002 -1.1813,9.03911 -1.59795,5.06928 -1.78596,7.33516 -0.76666,9.23974 1.72189,3.21737 3.76252,3.25365 3.76252,0.0669 0,-1.35107 1.7465,-4.44566 3.88112,-6.87685 3.46084,-3.94168 3.79399,-4.99543 3.07656,-9.73099 -2.46474,-16.26904 -2.41255,-17.05505 1.55639,-23.43974 4.43023,-7.12676 2.67684,-9.3884 -3.34817,-4.31869 -2.00848,1.69003 -3.9571,3.07278 -4.33026,3.07278 -1.29347,0 0.78186,-9.39624 3.03693,-13.75 3.29072,-6.35323 11.02173,-14.90808 11.08049,-12.26127 0.13857,6.24019 7.78499,0.89407 13.82804,-9.6681 3.8285,-6.6915 7.79482,-10.57063 10.80825,-10.57063 1.14586,0 1.05711,1.13916 -0.35136,4.51011 -1.03644,2.48056 -1.6484,4.74614 -1.35993,5.03463 0.91268,0.91266 13.204,-10.79641 14.01475,-13.35085 1.14396,-3.60432 3.11139,-2.96957 3.07974,0.99361 -0.0499,6.24648 -4.76616,14.03013 -14.93476,24.64805 -8.20299,8.56545 -10.03779,11.20026 -10.03779,14.41454 0,6.13487 3.79161,4.30546 7.77237,-3.75009 1.86857,-3.78125 3.41544,-5.89062 3.4375,-4.6875 0.0841,4.58614 6.56593,2.23853 10.7271,-3.88518 l 3.06303,-4.50766 0,5.13392 c 0,10.77127 -1.15886,13.13064 -11.27066,22.94642 -9.31845,9.04565 -13.72934,15.2504 -13.72934,19.31293 0,2.281 0.58749,2.37959 3.83217,0.64309 3.83048,-2.05 3.09032,2.38703 -1.42163,8.52234 -5.68364,7.72854 -2.54424,10.3758 6.02446,5.08005 l 4.35509,-2.69159 -0.89985,3.00409 c -1.43667,4.79627 -6.81228,13.53559 -11.55467,18.78485 -5.15085,5.70138 -4.4765,6.01841 3.3046,1.55356 12.6813,-7.27661 15.83159,-12.12274 17.48448,-26.8966 1.02871,-9.19482 1.56722,-10.71303 4.706,-13.26739 1.94939,-1.58644 6.0756,-5.3278 9.16935,-8.31414 3.09375,-2.98634 8.15625,-7.11778 11.25,-9.18097 7.81831,-5.21396 12.45607,-10.0705 15.20785,-15.92522 l 2.35005,-5 -0.58101,8.75 c -0.31957,4.8125 -0.61384,10.55717 -0.65395,12.76592 -0.063,3.46671 -1.07435,4.69597 -7.3954,8.98852 -7.29222,4.95205 -11.42754,10.83139 -11.42754,16.24697 0,2.88055 2.40986,3.46372 4.72916,1.14442 0.81355,-0.81354 1.81668,-1.14166 2.22918,-0.72916 0.4125,0.4125 -0.46875,1.96875 -1.95834,3.45833 -1.48959,1.48958 -2.4123,3.00437 -2.05049,3.36619 1.44504,1.44502 10.32804,-4.24291 12.67549,-8.11632 6.64556,-10.96551 10.28708,-15.90549 13.41704,-18.20119 4.33155,-3.177 6.01049,-1.72128 2.42122,2.09931 -3.12951,3.33121 -3.57458,7.10201 -0.83826,7.10201 2.74278,0 2.30461,2.37069 -1.43569,7.76795 -1.82089,2.62754 -2.94951,5.13852 -2.50806,5.57997 1.67405,1.67405 10.43731,-2.21036 14.54299,-6.44634 2.35306,-2.42774 8.24333,-12.14563 13.08952,-21.59532 7.88324,-15.37172 9.45145,-17.60912 14.89,-21.24376 3.34333,-2.23437 7.46461,-4.0625 9.15841,-4.0625 3.03894,0 3.02635,0.0448 -0.95233,3.39268 -4.82888,4.06323 -11.15984,12.55011 -11.15984,14.96015 0,0.95025 1.21071,2.1756 2.69049,2.72301 2.60334,0.96304 2.53928,1.16263 -1.97789,6.1626 -4.52529,5.00895 -4.9735,7.76156 -1.26383,7.76156 5.37561,0 -2.59295,11.47357 -13.12888,18.90371 -4.13909,2.91897 -7.30884,5.524 -7.04389,5.78896 0.67479,0.67479 10.26141,-4.30385 16.974,-8.81515 3.09375,-2.07919 8.01237,-6.29557 10.93026,-9.36972 l 5.30528,-5.58936 -1.42173,4.22828 c -2.38882,7.10451 -11.6793,20.09772 -20.26607,28.34317 -8.46562,8.12909 -14.4811,11.51011 -20.47873,11.51011 -2.09882,0 -6.05762,1.88561 -9.84128,4.6875 -3.48151,2.57813 -8.95822,6.62578 -12.17048,8.99476 -6.3656,4.69454 -10.09157,9.44191 -8.91042,11.35305 0.41288,0.66808 3.38939,1.21424 6.61444,1.2137 8.65033,-10e-4 19.80429,-5.70418 26.60706,-13.60349 3.54575,-4.11728 6.49478,-6.39451 8.2815,-6.39491 l 2.77483,-6.1e-4 -3.14529,4.63484 c -3.93262,5.79503 -3.6373,10.58088 0.72063,11.67807 2.98063,0.75043 2.64584,1.258 -7.2469,10.98693 -10.1841,10.01546 -10.48473,10.20016 -16.60265,10.20016 -3.42691,0 -8.13768,0.79676 -10.46838,1.77059 -4.72141,1.97273 -8.82415,7.25322 -7.76995,10.00042 0.4006,1.04395 -0.58432,2.62333 -2.36256,3.78846 -1.67726,1.09899 -3.04956,3.07624 -3.04956,4.39389 0,1.8638 1.03597,2.48187 4.66592,2.78368 l 4.66593,0.38796 -6.61876,4.74134 c -5.53315,3.96366 -6.55473,5.2898 -6.22843,8.08521 0.87111,7.46256 17.3776,6.66547 34.21086,-1.652 7.4512,-3.6817 11.21257,-6.61909 17.65053,-13.78395 5.1358,-5.71568 10.00051,-9.83303 13.06799,-11.06039 6.73411,-2.69446 6.87256,-2.55614 2.46545,2.46329 -2.13372,2.43016 -3.87949,4.90586 -3.87949,5.50152 0,0.59568 -1.98216,2.25254 -4.4048,3.68194 -5.251,3.09817 -6.86669,6.34278 -4.04483,8.12276 1.79211,1.13043 1.7008,1.84232 -0.89185,6.9548 -3.7583,7.41103 -5.99823,9.30605 -14.95531,12.65254 -11.44996,4.27785 -16.7557,11.42854 -11.01571,14.84618 1.96684,1.17106 1.74617,1.67831 -2.1875,5.02847 l -4.375,3.72604 4.81109,0.0336 c 5.71588,0.04 12.89577,-3.09943 14.66985,-6.41433 0.69822,-1.30464 1.74387,-2.07889 2.32367,-1.72055 0.57982,0.35834 3.4348,-0.18841 6.34445,-1.21499 6.89791,-2.43372 6.82585,-2.46994 3.73201,1.87496 -3.60963,5.06927 -2.25023,6.67213 5.06274,5.96944 10.21744,-0.98176 19.17563,-6.42222 32.54893,-19.7675 12.40383,-12.37783 19.83799,-16.91325 26.20813,-15.98902 2.44897,0.35531 1.70629,1.15498 -4.78386,5.15102 -8.64764,5.32443 -12.79201,10.28575 -12.79201,15.3136 0,3.21158 0.25811,3.36622 4.4765,2.68166 3.91448,-0.63523 4.27745,-0.48658 2.89102,1.18396 -0.87202,1.05071 -4.15207,3.2237 -7.28901,4.82884 -3.13692,1.60514 -8.87662,5.39863 -12.75486,8.42998 -6.61099,5.16732 -11.983,7.32044 -29.19865,11.70289 -3.44699,0.87746 -3.51574,0.99482 -0.85075,1.45244 5.30462,0.91087 19.67949,-2.29983 29.59462,-6.6101 l 9.79224,-4.25685 -4.26806,4.40398 c -11.46701,11.83224 -24.77378,16.75841 -45.31691,16.7764 -12.22794,0.0113 -14.77705,0.39669 -20.63776,3.125 -3.67764,1.71204 -7.47452,3.11279 -8.43751,3.11279 -0.96297,0 -1.75087,0.55179 -1.75087,1.22619 0,1.41352 3.49909,2.3408 10.625,2.81563 l 5,0.33318 -3.75,2.13745 c -3.03505,1.72995 -3.27336,2.14131 -1.25,2.15769 1.375,0.0113 4.75,-0.5115 7.5,-1.16138 2.75,-0.64986 6.125,-0.83456 7.5,-0.41041 1.70807,0.52689 -0.64683,1.51412 -7.43414,3.11656 -7.9809,1.88425 -10.56152,3.0934 -13.125,6.14972 -4.14576,4.94281 -10.34287,5.78648 -23.11002,3.14618 -12.02273,-2.48635 -18.25245,-2.54837 -21.40443,-0.2131 -2.39766,1.77641 -2.39679,1.82036 0.0736,3.70853 7.92496,6.05726 15.62532,7.17897 16.82376,2.45073 l 0.67624,-2.66802 9.35837,2.44307 c 5.14712,1.34369 9.55014,2.63482 9.78449,2.86918 0.41203,0.41202 -6.15601,1.85927 -19.14286,4.21807 l -6.25,1.13519 5,0.18753 c 4.7491,0.17811 4.87455,0.28285 2.5,2.08731 -1.94736,1.47984 -5.34473,1.81645 -15.369,1.52275 -11.61703,-0.34036 -13.13712,-0.66184 -15.625,-3.30432 z m -31.54186,-23.33703 c 17.39461,-3.68465 33.29648,-13.5791 43.36993,-26.98561 5.10558,-6.79488 11.04093,-17.45694 11.04093,-19.83354 0,-0.86224 -13.50361,-1.29155 -40.625,-1.29155 l -40.625,0 0,24.2958 0,24.2958 4.0625,0.50415 c 8.49395,1.0541 14.34473,0.80106 22.77664,-0.98505 z m -60.58914,-31.8607 0,-16.25 -10.625,0 c -6.44639,0 -10.625,0.50563 -10.625,1.28565 0,3.00849 7.90557,16.57191 13.75804,23.60436 3.4832,4.18549 6.59384,7.60999 6.91253,7.60999 0.31869,0 0.57943,-7.3125 0.57943,-16.25 z m -0.0541,-62.8125 -0.0541,-32.8125 -6.18533,6.875 c -13.49295,14.99741 -19.72631,33.0646 -18.86774,54.6875 l 0.1613,4.0625 12.5,0 12.5,0 -0.0541,-32.8125 z m 118.53248,20 c -0.86611,-19.98773 -7.2603,-34.43103 -21.54025,-48.65554 -13.65985,-13.60682 -37.27078,-22.35848 -55.15378,-20.44338 l -8.03434,0.86041 0,40.5255 0,40.52551 42.64177,0 42.64178,0 -0.55519,-12.8125 z"
       style="fill:#999999"
       inkscape:connector-curvature="0" />
  </g>
</svg>
