<?xml version="1.0" encoding="UTF-8" standalone="no"?>
<svg
   xmlns:dc="http://purl.org/dc/elements/1.1/"
   xmlns:cc="http://creativecommons.org/ns#"
   xmlns:rdf="http://www.w3.org/1999/02/22-rdf-syntax-ns#"
   xmlns:svg="http://www.w3.org/2000/svg"
   xmlns="http://www.w3.org/2000/svg"
   version="1.1"
   id="svg2"
   viewBox="0 0 79.183068 115.43307"
   height="32.577778mm"
   width="22.347221mm">
  <defs
     id="defs4" />
  <metadata
     id="metadata7">
    <rdf:RDF>
      <cc:Work
         rdf:about="">
        <dc:format>image/svg+xml</dc:format>
        <dc:type
           rdf:resource="http://purl.org/dc/dcmitype/StillImage" />
        <dc:title></dc:title>
      </cc:Work>
    </rdf:RDF>
  </metadata>
  <g
     transform="translate(83.162962,-474.64568)"
     id="layer1">
    <path
       id="path3347"
       d="m -54.22812,570.96937 c -1.882522,-1.09502 -2.211699,-2.72036 -1.9543,-9.64949 0.367064,-9.88129 0.793828,-11.45767 3.101873,-11.45767 2.251599,0 2.194766,-0.72155 -0.403245,-5.11964 -1.179481,-1.9967 -3.186136,-3.63036 -4.459235,-3.63036 -1.815831,0 -2.133811,-0.60618 -1.475334,-2.8125 1.300634,-4.35796 4.061647,-8.20464 7.511432,-10.46503 2.977321,-1.95081 3.033501,-2.18835 1.038857,-4.39241 -1.159774,-1.28153 -2.845458,-2.33006 -3.745966,-2.33006 -3.960149,0 -5.438759,-12.64948 -2.216714,-18.96395 2.008393,-3.93599 7.401093,-8.02651 12.154476,-9.21954 8.559128,-2.1482 18.569544,8.70094 13.086993,14.18349 -1.166666,1.16667 -1.083334,1.5 0.375,1.5 1.03125,0 2.536709,-0.66171 3.345464,-1.47046 3.736196,-3.7362 9.467663,9.18244 7.21823,16.26978 -0.446928,1.40814 -2.671964,3.16134 -4.978074,3.92242 -4.096874,1.35209 -4.148607,1.46022 -2.95272,6.17165 0.951273,3.74772 0.782965,5.63518 -0.770344,8.63895 -2.481027,4.79778 -2.540251,7.71766 -0.156536,7.71766 1.007061,0 2.46978,1.19353 3.250485,2.65229 1.165912,2.17853 0.980339,3.09142 -1.038904,5.11067 -2.444491,2.44448 -2.486666,2.44393 -7.471316,-0.0991 -2.757121,-1.40657 -5.444359,-3.56575 -5.971638,-4.79816 -0.771159,-1.80243 -1.27155,-1.26269 -2.558103,2.75926 -0.879678,2.75 -1.642644,7.08958 -1.695479,9.64352 -0.127793,6.17713 -4.21285,8.75985 -9.234902,5.83864 z m 5.264237,-33.29466 c 0.06853,-0.85938 -0.4379,-1.5625 -1.1254,-1.5625 -0.6875,0 -1.19393,2.10937 -1.1254,4.6875 0.1112,4.1834 0.232227,4.35144 1.1254,1.5625 0.55044,-1.71875 1.05687,-3.82813 1.1254,-4.6875 z m 20.1246,-17.73873 c 0,-0.64693 -0.5625,-1.52387 -1.25,-1.94877 -0.6875,-0.4249 -1.25,0.10441 -1.25,1.17623 0,1.07182 0.5625,1.94877 1.25,1.94877 0.6875,0 1.25,-0.5293 1.25,-1.17623 z m 4.238665,-5.34936 c 2.204618,-2.05942 1.01809,-5.97441 -1.810683,-5.97441 -2.919952,0 -4.050343,1.85759 -3.049432,5.01119 0.90319,2.84569 2.505062,3.16317 4.860115,0.96322 z m -12.237523,-13.16191 c -0.09725,-2.65027 -0.825766,-3.53625 -3.181107,-3.86871 -3.393125,-0.47895 -6.558283,2.73088 -5.475445,5.55271 0.386045,1.00602 2.401413,1.7535 4.727789,1.7535 3.620781,0 4.041401,-0.36802 3.928763,-3.4375 z m -6.96286,1.5625 c 0,-3.50347 4.860098,-5.30486 5.899502,-2.18665 0.340867,1.02261 -0.207189,1.28387 -1.58449,0.75535 -1.213884,-0.46581 -2.573446,-0.0691 -3.210309,0.93665 -0.607586,0.95956 -1.104703,1.18215 -1.104703,0.49465 z"
       style="fill:#000000" />
  </g>
</svg>
