<?xml version="1.0" encoding="UTF-8" standalone="no"?>
<svg
   xmlns:dc="http://purl.org/dc/elements/1.1/"
   xmlns:cc="http://creativecommons.org/ns#"
   xmlns:rdf="http://www.w3.org/1999/02/22-rdf-syntax-ns#"
   xmlns:svg="http://www.w3.org/2000/svg"
   xmlns="http://www.w3.org/2000/svg"
   xmlns:sodipodi="http://sodipodi.sourceforge.net/DTD/sodipodi-0.dtd"
   xmlns:inkscape="http://www.inkscape.org/namespaces/inkscape"
   version="1.1"
   id="svg2"
   viewBox="0 0 4535.4331 1062.9921"
   height="300mm"
   width="1280mm"
   inkscape:version="0.91 r13725"
   sodipodi:docname="smashbackground.svg">
  <sodipodi:namedview
     pagecolor="#ffffff"
     bordercolor="#666666"
     borderopacity="1"
     objecttolerance="10"
     gridtolerance="10"
     guidetolerance="10"
     inkscape:pageopacity="0"
     inkscape:pageshadow="2"
     inkscape:window-width="1177"
     inkscape:window-height="469"
     id="namedview7"
     showgrid="false"
     inkscape:zoom="0.12832292"
     inkscape:cx="2839.6841"
     inkscape:cy="531.49606"
     inkscape:window-x="131"
     inkscape:window-y="240"
     inkscape:window-maximized="0"
     inkscape:current-layer="svg2" />
  <defs
     id="defs4" />
  <metadata
     id="metadata7">
    <rdf:RDF>
      <cc:Work
         rdf:about="">
        <dc:format>image/svg+xml</dc:format>
        <dc:type
           rdf:resource="http://purl.org/dc/dcmitype/StillImage" />
        <dc:title />
      </cc:Work>
    </rdf:RDF>
  </metadata>
  <g
     transform="matrix(3.2841715,0,0,4.5883407,-6362.9223,-2165.6303)"
     id="layer1"
     style="fill:#ff0000">
    <path
       id="path3358"
       d="m 2287.6986,538.83707 c -0.7425,-0.13519 -3.8475,-0.3832 -6.9,-0.55114 -3.0525,-0.16795 -9.465,-0.64765 -14.25,-1.066 -4.785,-0.41836 -9.8138,-0.76095 -11.175,-0.76131 -1.5693,-3e-4 -2.475,-0.11903 -2.475,-0.32412 0,-0.19128 -0.4597,-0.28323 -1.125,-0.225 -1.0973,0.096 -1.1239,0.0744 -1.0805,-0.87849 0.056,-1.22967 0.2411,-1.19163 -6.9625,-1.43051 -5.3646,-0.1779 -5.7817,-0.15257 -6.75,0.40998 -0.5676,0.32979 -1.829,0.69603 -2.8032,0.81389 -0.9977,0.1207 -2.4726,0.58322 -3.3773,1.05911 -1.5286,0.80406 -1.7168,0.83241 -3.9015,0.5874 -1.2626,-0.14158 -2.4765,-0.18797 -2.6978,-0.10308 -0.2212,0.0849 -0.4022,0.005 -0.4022,-0.17774 0,-0.18266 0.135,-0.3321 0.3,-0.3321 0.165,0 0.3,-0.11877 0.3,-0.26394 0,-0.14517 -0.8136,-0.3228 -1.808,-0.39473 -1.4587,-0.10551 -1.9012,-0.2637 -2.2899,-0.81861 -0.4587,-0.65497 -0.6267,-0.68218 -3.5169,-0.56964 -2.3532,0.0916 -3.2374,0.24905 -3.9352,0.70062 -0.495,0.32034 -0.9792,0.69281 -1.0759,0.8277 -0.2265,0.31564 -1.4422,0.36217 -7.3991,0.28322 -2.6812,-0.0355 -4.875,-0.18208 -4.875,-0.32563 0,-0.14356 0.6413,-0.42513 1.425,-0.62572 2.9028,-0.74294 2.6464,-0.87256 -1.7664,-0.89297 -3.772,-0.0174 -4.7453,0.0809 -6.9,0.69749 -1.3797,0.39478 -3.4904,0.93708 -4.6903,1.20511 -1.2,0.26803 -2.7202,0.7028 -3.3784,0.96614 -0.864,0.34571 -1.3043,0.38952 -1.5837,0.15762 -0.2183,-0.18119 -1.8187,-0.33256 -3.6716,-0.34727 -1.8065,-0.0143 -3.6896,-0.0447 -4.1846,-0.0676 -0.495,-0.0228 -1.305,0.0697 -1.8,0.20564 l -0.9,0.24714 0.6949,-0.75786 0.695,-0.75786 -7.745,-0.19346 c -4.2597,-0.1064 -10.7149,-0.32921 -14.3449,-0.49513 -3.63,-0.16592 -8.625,-0.21483 -11.1,-0.10871 -2.475,0.10613 -10.7775,0.21725 -18.45,0.24695 -13.1939,0.0511 -14.0035,0.0232 -14.9364,-0.51377 -0.7344,-0.42275 -1.2708,-0.51499 -2.1,-0.36114 -0.6125,0.11364 -3.4761,0.29807 -6.3636,0.40985 -4.0999,0.15871 -5.5129,0.1128 -6.45,-0.20958 -0.9624,-0.33107 -2.2989,-0.36192 -6.75,-0.15582 -10.3439,0.47896 -20.5648,0.0998 -26.5329,-0.98434 -2.1807,-0.39612 -3.4162,-0.43767 -6.6,-0.22194 -2.1544,0.14598 -9.9566,0.26604 -17.3383,0.26681 -12.6458,10e-4 -13.4115,-0.029 -13.2547,-0.52361 0.1085,-0.34252 0.01,-0.525 -0.2891,-0.525 -1.0212,0 -3.71,0.71188 -4.83,1.27879 -1.0946,0.55399 -1.4731,0.58242 -4.5,0.33804 -1.8178,-0.14676 -9.0425,-0.29286 -16.055,-0.32467 -7.0125,-0.0318 -15.99,-0.11312 -19.95,-0.18068 -3.96,-0.0676 -8.6254,-0.14278 -10.3677,-0.16716 -2.2109,-0.0309 -3.3435,-0.1735 -3.75,-0.47204 -0.5659,-0.41568 -0.557,-0.45434 0.3177,-1.37457 0.495,-0.52077 1.3725,-1.14659 1.95,-1.39071 0.979,-0.41385 1.0094,-0.46587 0.45,-0.76967 -0.8964,-0.48677 -0.9025,-0.50847 -0.2781,-0.98089 0.5242,-0.3966 0.3801,-0.43825 -1.5469,-0.4469 -1.1688,-0.005 -2.2128,-0.0973 -2.3201,-0.20466 -0.4209,-0.42085 1.4164,-1.64342 2.8895,-1.92279 0.844,-0.16005 1.6675,-0.424 1.8301,-0.58655 0.4754,-0.47541 -3.1683,-0.33988 -7.2194,0.26853 -3.0167,0.45308 -3.9215,0.71563 -5.25,1.52349 -2.191,1.33233 -3.2551,2.38953 -3.2551,3.23388 0,0.53772 -0.272,0.82039 -1.125,1.16918 -0.6187,0.253 -1.3537,0.75236 -1.6331,1.10969 -0.4885,0.62447 -0.7233,0.64969 -6.0503,0.64969 -3.0481,0 -5.6545,-0.11273 -5.7918,-0.25052 -0.4292,-0.43051 1.2699,-1.60198 2.641,-1.82083 0.7201,-0.11494 1.5812,-0.38695 1.9136,-0.60447 0.3324,-0.21752 1.0412,-0.49142 1.575,-0.60867 0.5338,-0.11725 0.9706,-0.32411 0.9706,-0.45969 0,-0.29144 2.708,-3.00582 2.9987,-3.00582 0.11,0 0.3867,-0.34902 0.615,-0.77559 0.2283,-0.42658 0.824,-0.98704 1.3237,-1.24547 0.8378,-0.43326 0.862,-0.48805 0.3106,-0.70332 -0.3289,-0.1284 -1.6105,-0.24434 -2.848,-0.25764 -3.5678,-0.0384 -12.6302,-1.801 -14.6788,-2.85502 -0.529,-0.27218 -1.4542,-0.3474 -2.9462,-0.23956 -1.7696,0.12792 -2.175,0.0764 -2.175,-0.27652 0,-0.84946 1.1774,-1.69969 2.7649,-1.99668 3.142,-0.58777 7.64,-1.26242 10.4248,-1.5636 6.3471,-0.68646 6.8454,-0.79776 10.2366,-2.28657 1.1344,-0.49804 2.2714,-2.15209 1.9876,-2.89156 -0.2207,-0.57532 -2.3562,-1.07543 -5.5645,-1.30316 -2.7283,-0.19366 -3.4889,0.0537 -2.7824,0.90497 0.2268,0.27318 0.2169,0.48583 -0.034,0.73686 -0.7424,0.74239 -2.8751,0.22655 -3.9764,-0.96181 -0.3641,-0.39289 -1.1671,-0.7743 -1.865,-0.8859 -0.9865,-0.15775 -1.2631,-0.3453 -1.4177,-0.9615 -0.1057,-0.42104 -0.1126,-0.89431 -0.015,-1.05173 0.097,-0.15741 -0.017,-0.2862 -0.2541,-0.2862 -0.237,0 -0.6091,-0.21472 -0.8269,-0.47716 -0.3099,-0.37331 -0.7261,-0.43592 -1.9126,-0.28768 -1.0738,0.13416 -1.6829,0.0678 -2.0865,-0.22733 -0.6272,-0.45859 -0.424,-1.10783 0.3466,-1.10783 0.4108,0 0.3959,-0.071 -0.093,-0.44046 -0.5343,-0.40413 -0.4415,-0.44125 1.125,-0.45 0.939,-0.005 1.7907,-0.14454 1.8927,-0.30954 0.102,-0.165 -0.063,-0.3 -0.3656,-0.3 -0.5126,0 -1.0002,-0.43684 -1.7344,-1.55383 -0.165,-0.25103 -0.691,-1.05036 -1.1689,-1.77629 -0.4779,-0.72593 -1.2204,-1.74285 -1.65,-2.25982 -1.3417,-1.61453 -2.2368,-2.84754 -2.6618,-3.66676 -0.2252,-0.43416 -0.7155,-1.19526 -1.0895,-1.69134 -1.3791,-1.82916 -1.5871,-4.05196 -0.3791,-4.05196 0.7259,0 3.7715,3.02842 4.7296,4.70288 0.5302,0.92677 1.5606,2.30651 2.2898,3.06608 0.7291,0.75957 1.8216,2.03148 2.4278,2.82645 0.6062,0.79498 1.5268,1.70855 2.0459,2.03017 0.5191,0.32162 1.036,0.95233 1.1488,1.40159 0.276,1.09972 0.6146,1.26286 2.6324,1.26824 0.9488,0.002 1.725,0.13144 1.725,0.28648 0,0.15504 0.5051,0.32379 1.1225,0.375 0.7688,0.0638 1.1528,0.2532 1.2187,0.60109 0.079,0.41503 -0.2366,0.54564 -1.7225,0.71375 -3.4544,0.39083 -1.7749,1.09716 2.7563,1.15914 1.6088,0.022 2.9176,-0.0322 2.9085,-0.12043 -0.01,-0.0882 -1.0352,-0.90294 -2.2802,-1.81044 -3.3319,-2.42875 -9.4033,-8.64449 -9.4033,-9.62694 0,-0.15018 0.3375,-0.27306 0.75,-0.27306 0.4125,0 0.75,0.12997 0.75,0.28882 0,0.15885 0.799,0.83141 1.7755,1.49456 0.9766,0.66316 2.2253,1.62576 2.775,2.13913 0.5497,0.51336 1.5395,1.278 2.1995,1.69921 0.66,0.42121 1.8426,1.29983 2.628,1.95249 1.4299,1.18823 3.4402,2.62579 3.672,2.62579 0.068,0 0.6207,0.3375 1.2285,0.75 0.7975,0.54118 1.5044,0.75 2.5388,0.75 0.7885,0 1.6472,0.0819 1.9082,0.1821 0.6012,0.23072 0.6165,0.98225 0.024,1.20941 -1.0843,0.41607 -0.2731,0.70549 1.875,0.669 1.5484,-0.0263 1.9972,-0.10146 1.3435,-0.225 -1.5563,-0.29415 -2.5738,-2.95182 -1.3435,-3.50914 0.2888,-0.1308 3.09,-0.29379 6.225,-0.36221 7.904,-0.17248 9.6524,0.28797 9.6142,2.532 -0.017,1.01171 -0.9854,1.59296 -2.6642,1.59942 -0.7845,0.003 -1.1107,0.12362 -1.0265,0.37942 0.2094,0.6359 1.232,0.58767 4.5648,-0.2153 4.1394,-0.99726 7.5591,-1.33357 10.6986,-1.05213 1.3822,0.1239 2.5636,0.17859 2.6254,0.12152 0.062,-0.0571 -0.2419,-0.52481 -0.675,-1.03944 -0.9598,-1.14075 -0.9711,-1.31242 -0.1123,-1.71208 0.605,-0.28154 0.6204,-0.33633 0.1488,-0.52839 -0.2894,-0.11785 -1.5811,0.0704 -2.8704,0.41827 -3.7611,1.01484 -6.5741,0.76821 -4.9322,-0.43242 0.4609,-0.33703 0.3828,-0.40325 -0.675,-0.57238 -2.0042,-0.32043 -5.9322,-1.42853 -7.0835,-1.99828 -1.4498,-0.71749 -2.7025,-2.21909 -2.4251,-2.90697 0.4258,-1.05567 1.1563,-1.81651 2.2406,-2.33357 l 1.1084,-0.52855 -0.9683,-0.59642 -0.9683,-0.59642 1.3081,-0.57699 c 2.7393,-1.20832 9.656,-1.25508 14.2919,-0.0966 2.3747,0.5934 4.503,0.56976 7.864,-0.0874 2.3682,-0.463 3.5691,-0.4658 3.3923,-0.008 -0.025,0.0641 0.053,0.37059 0.1717,0.6812 0.1212,0.31577 0.051,0.82946 -0.1583,1.1652 -0.3037,0.48629 -0.2984,0.649 0.028,0.85567 0.2214,0.14036 0.56,0.25727 0.7524,0.2598 0.1924,0.002 0.7655,0.52952 1.2737,1.1711 0.8928,1.12731 0.9093,1.20151 0.4887,2.208 -0.2739,0.65567 -0.7736,1.18167 -1.3487,1.41989 -0.5024,0.20811 -0.9135,0.51234 -0.9135,0.67605 0,0.34209 0.7058,0.23042 4.05,-0.64078 1.32,-0.34388 2.7169,-0.6996 3.1043,-0.7905 0.5631,-0.13217 0.669,-0.30567 0.5283,-0.86605 -0.1146,-0.45658 0.032,-0.96505 0.4208,-1.45926 0.3281,-0.41717 0.5966,-0.89626 0.5966,-1.06462 0,-0.16837 -0.7087,-0.57375 -1.575,-0.90085 -3.1332,-1.18309 -5.661,-2.44746 -5.4797,-2.74085 0.2867,-0.46388 3.0263,-1.15506 6.0047,-1.51495 1.485,-0.17944 2.8079,-0.43331 2.9397,-0.56415 0.1319,-0.13085 -0.8131,-0.32609 -2.1,-0.43388 -3.2645,-0.27342 -7.8992,-1.08598 -8.7653,-1.53674 l -0.7257,-0.37764 0.823,-0.53925 c 0.6738,-0.44149 1.7843,-0.57952 6.1257,-0.76143 2.9164,-0.1222 5.7076,-0.38453 6.2026,-0.58296 0.495,-0.19843 1.575,-0.45888 2.4,-0.57878 l 1.5,-0.218 -0.9,-0.3497 c -0.495,-0.19234 -1.1025,-0.48576 -1.35,-0.65206 -0.543,-0.36487 -1.4435,-0.78297 -2.2283,-1.03462 -0.5002,-0.1604 -0.5204,-0.24242 -0.15,-0.60768 0.5845,-0.57621 15.6778,-0.77306 16.6836,-0.21758 0.3604,0.19903 1.3729,0.37051 2.25,0.38106 l 1.5947,0.0192 -0.975,0.48525 c -1.1363,0.5655 -1.2574,0.96789 -0.3,0.99669 l 0.675,0.0203 -0.675,0.32553 c -0.3712,0.17905 -0.675,0.42354 -0.675,0.5433 0,0.26569 -1.1929,0.74574 -3,1.20729 -0.7425,0.18965 -1.6188,0.48812 -1.9473,0.66328 -0.5118,0.27293 -0.3402,0.37098 1.2,0.68553 2.3015,0.47001 10.3099,3.8906 13.6426,5.82708 0.716,0.41599 1.5826,0.60738 2.7505,0.60738 2.1111,0 2.6271,-0.18953 2.9698,-1.09092 0.3398,-0.89386 1.3722,-0.93159 2.9844,-0.10908 1.2158,0.62024 2.4,0.79075 2.4,0.34556 0,-0.13994 0.5704,-0.51119 1.2674,-0.825 1.0721,-0.48262 1.9622,-0.56766 5.775,-0.5517 3.9839,0.0167 4.7702,0.10643 6.768,0.77262 2.067,0.68926 2.8403,1.12916 4.1009,2.33277 0.3834,0.36606 0.636,0.35554 1.8415,-0.0766 0.7685,-0.27549 2.6122,-0.60621 4.0972,-0.73493 l 2.7,-0.23404 -1.5446,-0.80399 c -1.4734,-0.76693 -3.4054,-2.69058 -3.4054,-3.39073 0,-0.43879 1.1339,-1.45475 2.255,-2.02035 0.9041,-0.45615 6.0423,-1.20391 7.581,-1.10326 1.6947,0.11085 2.0629,-0.0383 1.024,-0.41472 -0.5445,-0.19731 -1.1022,-0.5403 -1.2394,-0.7622 -0.2011,-0.3254 -0.4565,-0.33508 -1.3203,-0.05 -1.1721,0.38684 -2.3003,0.0391 -2.3003,-0.70896 0,-0.48383 -0.9142,-0.76236 -2.55,-0.77692 -1.5352,-0.0137 -3.5623,-0.93216 -4.1978,-1.90206 -0.5517,-0.84202 -2.4872,-1.3946 -4.892,-1.39666 -1.2053,-9e-4 -4.1724,-0.3903 -8.1072,-1.06363 -1.5505,-0.26533 -0.6906,-0.92832 1.6886,-1.30188 8.7493,-1.37376 10.7416,-1.44394 12.8319,-0.45202 1.0973,0.52069 2.0342,0.44631 4.7765,-0.37923 2.8362,-0.85382 2.8436,-0.86086 1.5,-1.43409 l -1.2,-0.51197 1.498,-0.50299 c 1.0023,-0.3365 1.6935,-0.80086 2.0886,-1.40298 0.725,-1.10479 5.136,-4.05 6.0657,-4.05 0.769,0 1.1469,0.58329 1.7977,2.77464 0.2494,0.84012 0.7115,2.00876 1.0268,2.59698 0.3153,0.58822 0.5732,1.15549 0.5732,1.26059 0,0.10511 -0.54,0.27745 -1.2,0.38299 -0.66,0.10554 -1.2,0.3253 -1.2,0.48835 0,0.16305 0.053,0.29645 0.117,0.29645 0.064,0 1.4376,0.27174 3.0518,0.60387 1.7529,0.36066 3.3496,0.52606 3.9646,0.41068 0.9695,-0.18187 1.0104,-0.15692 0.6982,0.42641 -0.4519,0.84438 -0.4169,1.55904 0.076,1.55904 0.2243,0 1.203,-0.40154 2.175,-0.89231 1.9245,-0.97176 6.0261,-1.80514 8.8921,-1.80673 2.5298,-0.001 2.3173,-0.53241 -0.9663,-2.41528 -0.819,-0.46964 -0.1711,-0.52238 2.9913,-0.24347 4.7321,0.41734 6.2486,0.76229 7.8394,1.78308 l 1.4471,0.92859 4.1608,-0.47694 c 2.2884,-0.26232 4.3502,-0.47531 4.5817,-0.47333 0.7064,0.006 -2.0945,1.46928 -3.7365,1.95198 -3.5908,1.05559 -2.9981,1.57651 1.2554,1.10353 1.7764,-0.19751 3.6116,-0.35912 4.0784,-0.35912 0.7965,0 0.837,0.06 0.6587,0.975 -0.218,1.11834 -1.6743,2.46496 -3.0334,2.80482 l -0.9016,0.22546 0.9,0.10661 c 0.495,0.0586 3.0635,-0.003 5.7077,-0.13763 4.7576,-0.2417 4.8218,-0.25423 6.15,-1.20215 3.103,-2.2144 3.6404,-2.2755 4.9216,-0.55948 0.5172,0.69276 0.5435,0.85697 0.1737,1.08549 -0.2396,0.14809 -0.372,0.32161 -0.2943,0.38559 0.078,0.064 2.1857,0.2717 4.6843,0.46159 2.4987,0.18988 4.8884,0.47655 5.3105,0.63703 0.5943,0.22595 1.2616,0.11845 2.957,-0.47639 1.6205,-0.56857 3.086,-0.81857 5.6395,-0.96206 3.3391,-0.18765 3.4477,-0.21539 3.3796,-0.86282 -0.053,-0.50175 0.3409,-0.97275 1.575,-1.88447 0.905,-0.66853 1.6454,-1.34626 1.6454,-1.50605 0,-0.1598 -0.4575,-0.29054 -1.0168,-0.29054 -1.3883,0 -2.4307,-0.87148 -2.1899,-1.8309 0.2707,-1.07848 2.9481,-2.33952 5.4666,-2.5747 1.4515,-0.13553 2.23,-0.37254 2.7812,-0.84666 l 0.7655,-0.65844 -2.6966,-0.15375 c -1.4831,-0.0846 -2.9827,-0.30688 -3.3324,-0.49404 -1.6718,-0.8947 -2.4813,-3.60286 -1.5803,-5.28646 0.2696,-0.50367 1.2066,-1.16726 2.5833,-1.82944 2.0484,-0.98523 2.7317,-1.63946 2.3527,-2.25268 -0.2449,-0.39613 3.9958,-0.33742 5.1251,0.071 1.2234,0.44237 1.956,0.24193 4.3416,-1.18783 1.7503,-1.04902 2.2188,-1.18702 4.575,-1.34777 1.4438,-0.0985 2.625,-0.13359 2.625,-0.078 0,0.0556 -0.2017,0.48779 -0.4482,0.9604 -1.0406,1.99542 -0.4427,3.36219 1.9386,4.43084 1.8151,0.81458 1.8383,0.84 1.389,1.52565 -0.4099,0.62561 -0.4092,0.71553 0.01,0.87503 0.2548,0.0978 0.7351,0.17777 1.0674,0.17777 0.6864,0 2.255,0.99893 2.9903,1.90427 0.7969,0.98121 -0.017,2.2776 -2.1738,3.46345 -1.503,0.8263 -1.7257,1.05393 -1.48,1.51301 0.4233,0.7909 0.1296,0.91927 -2.103,0.91927 -2.2378,0 -3.0988,0.48473 -2.194,1.2352 1.2977,1.07628 14.0811,0.10555 20.6303,-1.56659 2.0688,-0.52823 2.5841,-0.79753 3.6764,-1.92137 1.5821,-1.62779 3.0621,-2.08338 8.3506,-2.57044 10.2731,-0.94613 10.8043,-1.01975 10.7014,-1.48293 -0.3676,-1.65423 -2.635,-2.32374 -9.1365,-2.69781 -6.3383,-0.36468 -8.0672,-0.7178 -8.4544,-1.72679 -0.2853,-0.74358 0.4525,-1.23618 2.3981,-1.60103 2.2295,-0.41809 5.4465,-0.19065 11.0194,0.77909 6.2642,1.09002 9.822,2.94348 9.822,5.11679 0,0.23973 0.1688,0.43886 0.375,0.4425 2.8875,0.051 9.6659,1.03778 13.4934,1.96435 2.5951,0.62821 4.8106,1.05007 4.9232,0.93746 0.1126,-0.11261 -0.022,-0.45474 -0.298,-0.76029 -0.4721,-0.52162 -0.4647,-0.604 0.1215,-1.34927 l 0.6244,-0.79373 -0.7698,-0.35073 c -0.4233,-0.19289 -0.7697,-0.56999 -0.7697,-0.83798 0,-0.83169 3.0512,-3.95246 4.4574,-4.55897 l 1.3074,-0.56391 -0.5204,-0.79418 -0.5204,-0.79419 3.263,0.1976 c 3.5688,0.21611 3.1978,0.32093 8.0391,-2.27129 1.1236,-0.6016 1.2576,-0.60951 3,-0.17707 1.4193,0.35225 3.3213,0.43272 8.5739,0.36276 3.7125,-0.0494 7.5263,-0.18212 8.475,-0.29484 1.2093,-0.14368 1.725,-0.10291 1.725,0.13636 0,0.739 1.2082,1.54132 2.325,1.54398 0.6188,10e-4 2.475,0.47119 4.125,1.0438 1.65,0.57261 3.2362,1.0439 3.525,1.04731 0.2888,0.003 0.525,0.13211 0.525,0.28599 0,0.15388 0.27,0.36548 0.6,0.47022 0.5957,0.18906 0.6,0.45391 0.6,36.62022 l 0,36.42978 -6.075,-0.0376 c -3.3412,-0.0206 -6.6825,-0.14816 -7.425,-0.28334 z m -295.866,-9.82552 c 0.094,-0.28623 -0.1432,-0.36961 -0.8538,-0.3 -0.5412,0.053 -1.0426,0.27479 -1.1142,0.49281 -0.094,0.28624 0.1432,0.36962 0.8538,0.3 0.5412,-0.053 1.0426,-0.27478 1.1142,-0.49281 z m -11.5452,-0.57859 c -0.7422,-1.16639 -0.9051,-1.23245 -2.2179,-0.89922 -0.9497,0.24105 -1.1709,0.43201 -1.1709,1.01071 0,0.67842 0.096,0.71351 1.9569,0.71351 l 1.9569,0 -0.525,-0.825 z m 132.1362,-1.20247 c -0.8321,-0.51592 -1.0786,-0.97253 -0.525,-0.97253 0.601,0 0.2804,-0.53987 -0.4259,-0.71714 -0.7034,-0.17654 -3.7249,0.86633 -3.4132,1.17804 0.151,0.15098 3.9447,0.94839 4.7391,0.9961 0.2475,0.0149 0.079,-0.20314 -0.375,-0.48447 z m -21.2078,-9.70474 c 0.1861,-0.34771 0.2243,-0.74628 0.085,-0.8857 -0.427,-0.42701 -11.2325,-0.35166 -11.6655,0.0813 -0.3017,0.30165 0.8397,0.489 4.0634,0.66704 1.5675,0.0866 3.525,0.27709 4.35,0.42338 2.4179,0.42875 2.8033,0.39394 3.1672,-0.28606 z m -76.2376,-2.3391 c 0.7492,-1.05219 0.7573,-1.2212 0.1228,-2.55184 -0.5701,-1.19553 -1.3332,-1.56563 -3.8197,-1.8526 -1.9098,-0.2204 -2.2202,0.26133 -0.3627,0.56277 1.3022,0.21131 2.88,1.58406 2.88,2.50565 0,0.40869 -0.308,0.89532 -0.75,1.18492 -1.0333,0.67702 -0.9388,1.02241 0.2796,1.02241 0.794,0 1.1715,-0.19934 1.65,-0.87131 z m 41.5641,-4.88038 c 1.0104,-0.46037 0.811,-0.97373 -0.4251,-1.0948 -1.2689,-0.12428 -5.1186,0.52149 -5.1186,0.85862 0,0.14186 0.7763,0.30664 1.725,0.36617 0.9488,0.0595 2.0224,0.13378 2.3859,0.16498 0.3635,0.0312 1.0082,-0.10154 1.4328,-0.29497 z m 3.8233,-6.53627 c 0.7056,-0.32337 2.064,-0.80103 3.0186,-1.06146 0.9546,-0.26043 1.6565,-0.60158 1.5597,-0.75811 -0.7463,-1.20767 -10.6362,-1.92254 -11.717,-0.84693 -0.3891,0.38721 -0.4357,0.68232 -0.2133,1.35 0.5741,1.72364 4.8088,2.48194 7.352,1.3165 z m -45.4877,-1.22319 c 0.5882,-0.22363 0.7269,-0.40268 0.493,-0.63656 -0.179,-0.17897 -0.254,-0.51145 -0.1668,-0.73885 0.087,-0.22739 -0.01,-0.41344 -0.2055,-0.41344 -0.2003,0 -0.292,-0.18813 -0.2038,-0.41807 0.169,-0.44033 -0.698,-1.3761 -1.8015,-1.94444 -0.8292,-0.42707 -1.2947,-0.42989 -1.2947,-0.008 0,0.54012 -0.9926,2.4958 -1.4395,2.83612 -0.5396,0.4109 -0.036,0.8585 1.4395,1.28012 1.4121,0.40343 2.2031,0.41411 3.1793,0.043 z m 72.4028,-1.31198 c 1.1026,-0.39772 2.6714,-0.81862 3.4863,-0.93535 2.2445,-0.32149 3.3769,-1.12641 3.4893,-2.4803 0.092,-1.10326 0.1013,-1.11067 1.3412,-1.03372 1.4698,0.0912 2.8011,-0.34535 2.8011,-0.91855 0,-0.24173 -0.616,-0.54808 -1.5229,-0.75743 -2.094,-0.48336 -2.3771,-0.44881 -2.3771,0.29015 0,0.59848 -0.1161,0.63161 -1.725,0.49226 -0.9487,-0.0822 -1.8927,-0.09 -2.0976,-0.0175 -0.5246,0.18574 0.051,1.18855 0.8223,1.43343 0.3302,0.1048 0.6003,0.32615 0.6003,0.49191 0,0.38435 -2.2381,0.10831 -6.0334,-0.74416 -3.3949,-0.76251 -7.6623,-0.78133 -6.2235,-0.0275 0.9141,0.47892 1.2784,1.57123 0.8765,2.62813 -0.3371,0.8867 -0.1708,1.10115 0.8554,1.10324 0.4263,9e-4 1.18,0.26101 1.675,0.57808 1.1924,0.76379 1.663,0.7518 4.0321,-0.10278 z m 83.8679,-3.11849 c 0.825,-0.28712 1.6832,-0.63709 1.907,-0.77771 1.1311,-0.71045 -2.2433,-1.07651 -4.1872,-0.45425 -0.5609,0.17953 -1.1944,0.38003 -1.4077,0.44555 -0.2933,0.0901 -0.3091,0.26656 -0.065,0.72358 0.4063,0.75923 1.6896,0.78072 3.7524,0.0628 z m -142.275,-0.81608 c 0.2887,-0.11357 0.525,-0.30642 0.525,-0.42854 0,-0.4446 -4.9759,-3.94237 -6.0781,-4.27262 -1.2698,-0.38044 -3.8501,-0.0279 -4.0389,0.55183 -0.061,0.18864 1.2047,0.97907 2.8135,1.7565 l 2.9252,1.41354 -0.9953,0.41849 c -0.5474,0.23017 -1.351,0.43878 -1.7858,0.46356 -0.5088,0.029 -0.3094,0.12654 0.5594,0.27364 1.4989,0.25381 5.2588,0.14463 6.075,-0.1764 z m -18.45,-0.93139 c 1.2994,-0.34823 0.658,-0.71091 -1.2573,-0.71091 -2.7034,0 -2.9875,0.77002 -0.3177,0.8611 0.495,0.0169 1.2038,-0.0507 1.575,-0.15019 z m 212.4643,-13.41901 c -0.6909,-0.64189 -6.0026,-2.66566 -7.4167,-2.82581 -0.92,-0.10419 -1.9274,0.088 -3.6,0.68693 -1.2775,0.45739 -2.4509,0.94757 -2.6076,1.08929 -0.4002,0.36183 3.2934,0.31037 4.935,-0.0687 1.5763,-0.36403 4.3321,0.0582 6,0.91938 0.5775,0.29816 1.5177,0.55672 2.0893,0.57458 0.8909,0.0278 0.9766,-0.0258 0.6,-0.37563 z m 45.2722,-3.36249 c 1.7537,-0.25882 3.2979,-0.5775 3.4317,-0.70817 0.1337,-0.13067 -1.0138,-0.31401 -2.55,-0.40742 -4.208,-0.25585 -5.0507,-0.59579 -6.78,-2.73526 -0.3173,-0.39251 -1.0698,-0.47856 -4.185,-0.47856 -2.1375,0 -3.6736,0.11267 -3.5132,0.25768 0.1568,0.14173 1.3402,0.63557 2.6298,1.09742 1.2897,0.46185 2.6397,1.06912 3,1.3495 1.0727,0.83466 3.6084,2.0954 4.2143,2.0954 0.3102,0 1.9987,-0.21177 3.7524,-0.47059 z m -79.1752,-6.5629 c 0.1979,-0.23842 0.3156,-0.74467 0.2617,-1.125 -0.085,-0.59796 -0.2951,-0.70406 -1.5548,-0.78425 -1.4729,-0.0938 -2.5932,0.46503 -2.5932,1.29339 0,0.91323 3.2165,1.42294 3.8863,0.61586 z m -185.2677,0.9129 c -0.5123,-0.22759 -1.0093,-0.71159 -1.1045,-1.07554 -0.5664,-2.16592 1.5725,-2.76524 10.1359,-2.84005 4.4156,-0.0386 5.3503,-0.13308 6.9655,-0.70419 1.1873,-0.41981 2.5726,-0.65963 3.8103,-0.65963 1.0696,0 2.6601,-0.15392 3.5344,-0.34204 1.1997,-0.25812 2.2891,-0.25499 4.4398,0.0127 1.5675,0.19514 3.4264,0.42522 4.1308,0.51129 0.7045,0.0861 1.2123,0.26729 1.1287,0.40269 -0.1793,0.29011 2.3538,0.51819 6.7405,0.6069 1.7325,0.035 3.1869,0.0994 3.2321,0.14312 0.2308,0.22339 -0.3608,1.06572 -0.8598,1.22409 -0.7333,0.23275 -0.7333,0.64965 0,0.8824 0.3147,0.0999 0.6497,0.38332 0.7443,0.62982 0.2753,0.71754 -1.1474,1.07486 -3.2304,0.81131 -1.0099,-0.12778 -3.0512,-0.12237 -4.5362,0.012 -1.485,0.13439 -6.075,0.26091 -10.2,0.28116 -6.656,0.0327 -7.6141,-0.0233 -8.5139,-0.49715 -1.1341,-0.59728 -2.2348,-0.53871 -4.8361,0.25734 -2.2708,0.69489 -10.2574,0.93192 -11.5814,0.34371 z m 255.838,-10.82326 c -0.8927,-0.27865 -1.5891,-0.3189 -2.248,-0.12993 -2.0484,0.58746 -3.6556,0.062 -2.4676,-0.80676 0.4888,-0.35744 0.4618,-0.40559 -0.3291,-0.58458 -2.791,-0.63162 -3.2087,-0.78977 -2.7884,-1.05573 0.2346,-0.14848 0.8827,-0.27203 1.4402,-0.27456 0.5576,-0.003 1.9751,-0.36429 3.15,-0.80392 1.8569,-0.6948 2.7052,-0.81654 6.4869,-0.93089 4.1827,-0.12647 4.3735,-0.10614 4.9465,0.52703 l 0.596,0.65857 -0.9256,0.79731 c -1.5986,1.37709 -2.5176,1.98115 -3.8125,2.50599 -1.5082,0.61131 -2.3382,0.63129 -4.0484,0.0975 z m 38.3542,-0.96262 c -2.9361,-0.45196 -5.0967,-1.23296 -6.1939,-2.2389 -0.5982,-0.5485 -0.8868,-0.56492 -5.25,-0.29877 -2.6733,0.16307 -5.3747,0.17219 -6.4169,0.0217 -0.99,-0.14297 -3.42,-0.39853 -5.4,-0.5679 -4.2289,-0.36173 -5.1842,-0.56401 -4.6003,-0.97402 0.263,-0.18474 -0.091,-0.2342 -1.0333,-0.14425 -1.2076,0.1153 -1.4843,0.0424 -1.7543,-0.46224 -0.2487,-0.46458 -0.2102,-0.70916 0.1713,-1.08912 0.3997,-0.39821 1.1498,-0.48886 4.0042,-0.48391 3.1544,0.005 3.7876,0.10203 6.2124,0.94742 2.8587,0.99667 6.1378,1.39709 8.55,1.04406 2.2559,-0.33015 1.5311,-0.78804 -1.5,-0.94757 -2.9116,-0.15324 -3.5936,-0.54156 -1.7476,-0.9951 2.8221,-0.69337 3.2476,-0.85861 3.2476,-1.26123 0,-0.72789 -1.2773,-0.8095 -4.3809,-0.27988 -3.3234,0.56713 -5.4977,0.46613 -9.2187,-0.42825 -2.7694,-0.66565 -3.2618,-1.01083 -2.2576,-1.58275 0.476,-0.27109 1.8842,-0.41037 4.3072,-0.42597 3.0169,-0.0194 4.0373,-0.15574 6.3,-0.84162 3.6642,-1.11071 7.1646,-1.30867 11.4,-0.64473 1.815,0.28452 3.7509,0.705 4.3021,0.93441 0.9717,0.40448 0.9957,0.45583 0.7927,1.69611 -0.1152,0.70346 -0.2286,1.41401 -0.2521,1.57901 -0.042,0.29447 1.9619,0.28623 3.3323,-0.0137 0.579,-0.12673 0.675,-0.0238 0.675,0.72392 0,0.80748 -0.1029,0.88708 -1.3976,1.08123 -0.7687,0.11527 -1.7474,0.34919 -2.175,0.51983 l -0.7774,0.31024 0.75,0.24064 c 0.4125,0.13236 1.3913,0.32704 2.175,0.43263 l 1.425,0.19197 0,2.23162 c 0,1.22739 -0.1012,2.216 -0.225,2.19691 -0.1237,-0.0191 -1.5027,-0.23138 -3.0642,-0.47176 z"
       style="fill:#ff0000"
       inkscape:connector-curvature="0" />
  </g>
</svg>
