<?xml version="1.0" encoding="UTF-8" standalone="no"?>
<!-- Created with Inkscape (http://www.inkscape.org/) -->

<svg
   xmlns:dc="http://purl.org/dc/elements/1.1/"
   xmlns:cc="http://creativecommons.org/ns#"
   xmlns:rdf="http://www.w3.org/1999/02/22-rdf-syntax-ns#"
   xmlns:svg="http://www.w3.org/2000/svg"
   xmlns="http://www.w3.org/2000/svg"
   xmlns:sodipodi="http://sodipodi.sourceforge.net/DTD/sodipodi-0.dtd"
   xmlns:inkscape="http://www.inkscape.org/namespaces/inkscape"
   width="500mm"
   height="282mm"
   viewBox="0 0 1771.6535 999.21259"
   id="svg2"
   version="1.1"
   inkscape:version="0.91 r13725"
   sodipodi:docname="smash_bros_pic.svg">
  <defs
     id="defs4" />
  <sodipodi:namedview
     id="base"
     pagecolor="#ffffff"
     bordercolor="#666666"
     borderopacity="1.0"
     inkscape:pageopacity="0.0"
     inkscape:pageshadow="2"
     inkscape:zoom="0.175"
     inkscape:cx="756.5248"
     inkscape:cy="520"
     inkscape:document-units="px"
     inkscape:current-layer="layer1"
     showgrid="false"
     inkscape:window-width="784"
     inkscape:window-height="403"
     inkscape:window-x="747"
     inkscape:window-y="149"
     inkscape:window-maximized="0" />
  <metadata
     id="metadata7">
    <rdf:RDF>
      <cc:Work
         rdf:about="">
        <dc:format>image/svg+xml</dc:format>
        <dc:type
           rdf:resource="http://purl.org/dc/dcmitype/StillImage" />
        <dc:title />
      </cc:Work>
    </rdf:RDF>
  </metadata>
  <g
     inkscape:label="Layer 1"
     inkscape:groupmode="layer"
     id="layer1"
     transform="translate(0,-53.149606)">
    <path
       style="fill:#000000"
       d="m 246.96166,1034.7305 c -9.5445,-3.048 -13.92222,-5.6245 -21.74544,-12.7984 -8.58043,-7.8685 -13.47316,-15.9416 -16.33517,-26.95399 l -2.27082,-8.73764 15.37264,0 c 15.27067,0 15.39015,0.0351 18.01089,5.17842 1.45102,2.84816 5.2433,7.19518 8.42725,9.66031 11.71566,9.0702 30.80714,4.4215 37.3329,-9.09049 l 2.73766,-5.66842 15.14108,-0.0403 c 16.87692,-0.0443 16.83476,-0.0845 12.61555,12.05314 -10.00726,28.78996 -41.42613,45.29436 -69.28654,36.39696 z m 332.03076,-5.2409 c 5.30162,-21.44 8.77099,-25.8655 40.00791,-51.03324 10.46899,-8.43492 20.34926,-17.38097 21.95625,-19.88007 2.61851,-4.07242 2.65704,-5.06285 0.37319,-9.54613 -2.1172,-4.15547 -3.10449,-4.70026 -5.83271,-3.21824 -1.80626,0.98121 -3.81142,3.47005 -4.45583,5.53077 -0.92031,2.94302 -1.49651,3.226 -2.68623,1.31917 -2.29438,-3.67695 -1.86779,-9.91685 1.0722,-15.6878 2.33292,-4.57906 3.55035,-5.18197 10.463,-5.18197 6.90673,0 8.16821,0.62316 10.77067,5.32088 2.39884,4.33019 3.91438,5.22957 8.13887,4.83011 4.08685,-0.38637 5.87928,-1.92046 8.42441,-7.20968 5.14633,-10.69521 16.66664,-13.56159 16.66664,-4.14687 0,4.40802 -3.07396,7.74962 -10.66937,11.59822 -4.11844,2.08685 -6.54253,6.34853 -6.61106,11.62273 -0.0113,0.99924 2.31239,3.21747 5.16757,4.92941 4.59849,2.7572 5.18995,4.05387 5.18029,11.35621 -0.01,7.19875 -0.629,8.60034 -4.88716,11.05841 -4.70967,2.7187 -15.8668,2.65006 -15.8668,-0.0977 0,-0.70134 1.94679,-2.17543 4.32603,-3.2758 5.273,-2.43864 5.5869,-6.53661 0.70388,-9.18915 -7.1359,-3.87643 -11.22176,-0.44768 -33.40749,28.03486 l -21.78134,27.96344 -11.69173,3.9169 c -6.4305,2.1541 -12.78173,4.3263 -14.114,4.8268 -1.86227,0.6996 -2.15045,-0.188 -1.24719,-3.8413 z m 78.59615,-71.70279 c 2.86841,-2.9115 2.60948,-8.43074 -0.39561,-8.43074 -3.18717,0 -7.91046,4.79413 -7.91046,8.02928 0,3.05009 5.4376,3.31292 8.30607,0.40146 z M 37.526788,1024.4621 c 4.728401,-4.1166 10.479945,-9.1173 12.781248,-11.1127 l 4.184145,-3.6278 -4.477728,-6.9105 c -8.298221,-12.8065 -9.603705,-29.17981 -3.351805,-42.03842 8.195902,-16.85694 28.301437,-26.63575 45.243549,-22.00517 6.545532,1.78901 8.282773,1.44014 21.264513,-4.27004 7.77517,-3.41999 14.48349,-6.21819 14.90738,-6.21819 0.42391,0 -2.92348,4.38903 -7.4386,9.7534 l -8.20933,9.75344 5.61149,11.22156 c 5.01202,10.0228 5.53452,12.44818 4.89114,22.70381 -0.84847,13.52526 -6.43451,23.10071 -18.49545,31.70431 -7.100613,5.065 -8.333835,5.3291 -25.907853,5.5462 -16.929941,0.2093 -19.737263,0.7544 -34.026081,6.6063 l -15.573704,6.3782 8.597086,-7.4844 z m 69.778642,-27.91899 5.6984,-2.39883 -11.44102,-12.7101 -11.441018,-12.71011 12.082478,-14.51409 c 6.64539,-7.98276 11.87525,-14.72671 11.62195,-14.98661 -0.59606,-0.61154 -56.833281,24.07991 -58.391706,25.63741 -0.649985,0.64962 4.192514,7.50414 10.761107,15.23231 l 11.942932,14.05119 -8.988581,7.90392 c -21.498866,18.9043 -21.920878,18.4383 6.500872,7.1774 14.275901,-5.6561 28.520466,-11.36319 31.654586,-12.68249 z m 662.9705,29.61389 c -12.01183,-8.2165 -17.24564,-21.3114 -13.76368,-34.43637 2.74062,-10.33117 7.71437,-15.06894 37.25981,-35.49209 42.64506,-29.47833 48.3209,-31.63308 63.21202,-23.99737 16.84042,8.63536 22.18683,29.53418 11.58607,45.28948 -2.27776,3.3853 -17.82324,15.30609 -38.04894,29.17685 l -34.19773,23.453 -10.10446,0 c -7.64472,0 -11.52595,-0.9721 -15.94309,-3.9935 z m 77.06624,-39.0422 c 16.1583,-11.41584 19.94544,-16.541 19.96092,-27.01301 0.0113,-9.62644 -4.99008,-18.20257 -12.8228,-21.97531 -10.66345,-5.13611 -16.47539,-3.79401 -33.91975,7.83255 l -15.9853,10.65415 4.11554,2.78821 c 11.92188,8.07662 22.2259,23.54352 22.26802,33.42561 0.008,2.17345 0.62165,3.95195 1.36084,3.95195 0.73898,0 7.49915,-4.34885 15.02253,-9.66415 z m -446.58989,35.0438 c -1.63835,-2.5381 -3.90548,-4.0605 -5.23114,-3.5129 -1.28682,0.5316 -3.50766,1.4462 -4.93527,2.0325 -3.45164,1.4177 -3.42178,-3.4527 0.0386,-6.3681 2.35918,-1.9874 2.35918,-2.646 0,-6.3006 -3.70651,-5.742 -3.31591,-9.47419 0.99173,-9.47419 1.99439,0 5.82232,-1.58741 8.50641,-3.5273 10.77142,-7.78491 20.88179,-5.30503 23.4626,5.75529 0.96777,4.1479 -0.0141,6.0302 -6.68932,12.804 -4.30309,4.3677 -8.26006,9.0954 -8.79331,10.5061 -1.44122,3.8121 -4.10114,3.119 -7.3507,-1.9148 z m 96.4055,1.5789 c -4.09748,-2.9131 -15.72525,-26.04774 -15.72525,-31.28721 0,-2.24098 -1.6459,-2.7036 -8.21946,-2.31053 -9.37732,0.56096 -11.1895,-2.15285 -3.19015,-4.77752 4.63471,-1.52063 5.35318,-2.58141 5.35318,-7.90377 0,-5.27343 -0.62406,-6.22127 -4.38949,-6.667 -2.78607,-0.32979 -7.15981,1.51735 -11.97308,5.0564 -6.42293,4.7226 -7.86984,5.18311 -9.4538,3.00896 -1.0286,-1.41187 -4.20631,-3.69465 -7.06149,-5.07284 -9.45373,-4.5633 -7.02057,-16.9833 2.93131,-14.96302 4.00928,0.81389 4.85556,0.38109 4.85556,-2.4832 0,-2.48159 -1.17103,-3.46889 -4.11418,-3.46889 -4.29515,0 -8.79943,-3.87101 -6.83008,-5.8699 0.62625,-0.63564 3.3708,-1.15569 6.09909,-1.15569 3.32026,0 6.87853,-1.94681 10.76101,-5.88761 8.91693,-9.05084 19.95726,-9.8958 34.28054,-2.62363 15.45138,7.84489 17.94996,35.14965 4.23661,46.29674 l -5.49872,4.46969 4.17861,3.53887 c 2.29823,1.94636 5.02363,3.18487 6.05644,2.75231 8.45604,-3.54203 7.93434,-4.49528 7.93434,14.49614 0,15.8402 -0.33128,17.7521 -3.07588,17.7521 -1.69166,0 -4.91145,-1.3053 -7.15511,-2.9004 z m -36.2362,-11.2868 c -9.5982,-1.9102 -21.67753,-9.0734 -26.52649,-15.73039 -2.07326,-2.84646 -5.18632,-5.63166 -6.91794,-6.18945 -4.16389,-1.34144 -4.05718,-8.18022 0.18853,-12.08025 4.32654,-3.97429 10.21473,-2.15312 11.36767,3.51596 0.47811,2.35063 1.25976,6.19474 1.73708,8.54224 1.30362,6.41172 5.23819,9.44354 13.9829,10.77439 5.56324,0.847 9.99455,0.3608 15.0363,-1.64952 8.19395,-3.26709 9.19836,-2.67684 10.83557,6.36652 1.12142,6.194 0.93166,6.5861 -3.18461,6.5861 -2.40746,0 -5.41416,0.3069 -6.68166,0.6818 -1.26751,0.3747 -5.69436,0.013 -9.83743,-0.8174 z M 250.57629,991.37494 c -8.41105,-10.14612 -5.0678,-24.00285 6.74605,-27.96035 14.96623,-5.01349 28.09237,10.24259 20.92198,24.31686 -3.45885,6.78916 -7.52913,9.0475 -16.30656,9.0475 -5.56004,0 -7.74192,-1.03776 -11.36147,-5.40401 z M 207.6223,972.94903 c -1.31949,-1.33931 1.79635,-12.48692 5.61257,-20.08015 4.32224,-8.60014 16.38914,-20.23775 25.79105,-24.87361 11.67449,-5.75642 30.86765,-6.44546 43.66371,-1.56751 17.28558,6.58933 32.14312,23.83363 35.26623,40.93142 l 1.20308,6.58652 -15.57871,0 c -14.98035,0 -15.61856,-0.16107 -16.61608,-4.19532 -1.56489,-6.32873 -11.89407,-14.59563 -19.96627,-15.97989 -9.85688,-1.69033 -21.38375,4.08598 -26.5768,13.31807 l -3.84191,6.83007 -13.98749,0.014 c -7.69314,0.008 -14.42934,-0.43498 -14.96938,-0.98315 z M 786.97396,855.2632 c -2.08418,-2.11542 -2.71931,-6.59437 -2.71931,-19.17676 0,-9.02919 -0.46798,-17.65447 -1.03983,-19.16732 -0.57197,-1.51281 -5.82811,-6.23417 -11.68034,-10.49188 -13.69428,-9.9631 -19.15617,-15.95445 -17.80459,-19.52991 0.58327,-1.54274 6.32723,-5.17776 12.76444,-8.07782 25.31626,-11.40547 23.15735,-9.29284 29.87331,-29.23295 3.33103,-9.89015 6.94619,-18.85515 8.03364,-19.92224 3.19622,-3.13635 8.21649,0.72745 20.4562,15.74403 l 11.18404,13.7214 15.43688,1.11219 c 26.94083,1.94105 29.25422,4.89471 18.19904,23.23761 -13.10809,21.74898 -12.34545,18.08667 -7.0694,33.95144 8.90391,26.77381 6.00233,30.9503 -17.30573,24.90986 -18.3431,-4.75371 -20.98786,-4.61501 -29.22349,1.53247 -6.35347,4.74254 -23.28207,14.14992 -25.46281,14.14992 -0.50759,0 -2.14644,-1.242 -3.64205,-2.76004 z m -357.69131,-4.10868 c -13.60143,-4.41585 -25.13259,-13.30625 -32.8188,-25.3029 -19.96201,-31.15659 -8.38108,-71.46644 25.36367,-88.28371 8.91775,-4.44428 12.24761,-5.12731 24.99675,-5.12731 12.52482,0 16.13977,0.71345 24.34865,4.80547 12.56675,6.26433 24.48384,18.35189 30.41641,30.8514 5.99063,12.62182 6.80945,33.4636 1.8024,45.87512 -7.44316,18.44958 -22.55362,32.41759 -40.87519,37.78463 -12.02319,3.52203 -21.03249,3.35863 -33.23389,-0.6027 z m 36.00936,-6.29614 c 9.52879,-2.87224 23.30927,-13.95693 27.44627,-22.07703 3.65966,-7.18342 3.26717,-7.4465 -3.95146,-2.6483 -3.56898,2.37231 -11.35586,6.43875 -17.30411,9.03652 -8.67379,3.78809 -10.81512,5.50408 -10.81512,8.66699 0,3.8996 -0.0834,3.91323 -7.4723,1.21639 -8.85195,-3.23096 -14.99615,-1.91526 -11.42914,2.44733 2.00279,2.44939 1.49527,2.63029 -4.56373,1.62673 -6.38649,-1.05784 -6.60493,-0.9559 -3.45811,1.61432 4.34348,3.54766 19.97425,3.60563 31.5477,0.11694 z m -10.61924,-14.74047 c -0.82991,-2.65404 0.47939,-3.95228 6.56109,-6.50545 7.42075,-3.11535 7.51615,-3.25693 4.09248,-6.07091 -2.34446,-1.92692 -3.10837,-3.93151 -2.30652,-6.05246 1.12571,-2.97764 1.44069,-2.94073 5.15872,0.60462 8.10969,7.73307 8.71124,3.1355 0.78824,-6.02391 -5.11057,-5.90803 -5.31043,-6.58275 -2.55531,-8.62757 2.79982,-2.07806 2.77855,-2.27412 -0.33681,-3.10104 -2.39079,-0.63459 -4.71254,1.00571 -8.25973,5.83563 -2.89561,3.9426 -6.66642,6.9395 -9.12677,7.25367 -5.76283,0.73586 -6.43575,4.26246 -1.07403,5.6284 5.73586,1.46121 5.77023,6.89514 0.0754,11.9211 -5.21901,4.60606 -5.55044,6.69338 -0.86522,5.44975 1.93496,-0.51357 3.46079,-0.0538 3.46079,1.04265 0,1.07869 1.22054,1.96125 2.71232,1.96125 1.87099,0 2.39062,-1.02837 1.67537,-3.31573 z m -0.92684,-7.88378 c 0,-1.62906 1.20166,-3.42998 2.67025,-4.00199 4.19889,-1.63548 4.60553,0.28055 0.80121,3.77515 -3.1679,2.90996 -3.47146,2.9298 -3.47146,0.22684 z m -22.23872,2.58955 c 2.30134,-1.8374 6.10516,-3.61574 8.45288,-3.95188 4.64991,-0.66579 5.14184,-3.18204 1.12473,-5.75399 -1.81768,-1.16381 -4.11903,-0.28642 -8.04585,3.0674 -4.30947,3.68058 -6.19736,4.31855 -8.72165,2.94732 -4.46633,-2.4262 -5.17962,-2.22378 -5.17962,1.46997 0,6.49139 5.73199,7.52069 12.36951,2.22118 z m -21.88676,-8.95406 c -5.25386,-5.56617 -7.78688,-6.61102 -7.78688,-3.21199 0,3.4302 5.50526,8.4812 9.24396,8.4812 3.21119,0 3.08463,-0.45747 -1.45708,-5.26921 z m 72.56461,1.7999 c 5.79524,-2.23645 5.60345,-5.31101 -0.75253,-12.06179 -2.85521,-3.03255 -5.19122,-6.40808 -5.19122,-7.50118 0,-1.40612 -0.74604,-1.359 -2.55059,0.16108 -2.20866,1.86051 -1.96052,2.93384 1.85086,8.00584 3.62303,4.82137 4.06333,6.49854 2.48969,9.48309 -2.18298,4.14024 -1.92535,4.25888 4.15379,1.91286 z m 13.01704,-26.5294 c -1.58775,-3.01128 -2.34532,-3.32746 -3.48558,-1.45482 -0.91898,1.50935 -0.3875,3.59202 1.43961,5.64127 3.50684,3.93325 4.86352,1.15726 2.04597,-4.18645 z m -86.08961,-5.5684 c -1.86222,-3.13956 -3.05644,-6.6124 -2.65382,-7.71735 0.91674,-2.51576 7.8742,-0.88001 9.73679,2.28913 1.99544,3.39524 6.40773,2.89758 6.37656,-0.71919 -0.0495,-5.72055 -3.06503,-8.1719 -10.2792,-8.35562 -4.70125,-0.11972 -7.98776,0.84577 -9.80072,2.87911 -2.5099,2.81504 -2.27659,3.62895 2.92255,10.19575 6.81355,8.60585 8.29446,9.17782 3.69784,1.42817 z m 56.82699,-1.16437 c -0.97441,-1.84794 -5.26885,-4.71555 -9.54327,-6.37249 -8.36133,-3.24119 -8.88407,-7.07727 -0.73912,-5.42381 4.31264,0.87548 4.90021,0.5106 4.54877,-2.82476 -0.54612,-5.184 4.34214,-5.98574 12.82432,-2.10341 l 6.74881,3.08903 -3.59311,3.88219 c -3.08471,3.33282 -3.21261,4.0304 -0.90367,4.92971 4.95286,1.92915 7.38598,-0.53029 7.19725,-7.27529 -0.16892,-6.03563 -0.60976,-6.55858 -6.21856,-7.37451 -4.13667,-0.6018 -6.23406,-1.92469 -6.66349,-4.20309 -0.51948,-2.75529 0.0699,-3.11218 3.44114,-2.08339 2.2374,0.68281 6.40401,1.38863 9.25919,1.56848 4.09998,0.25826 5.55503,1.43469 6.92164,5.59623 2.25366,6.86247 4.0999,9.66016 6.37486,9.66016 2.74729,0 0.32349,-9.95929 -3.8829,-15.95539 -3.78445,-5.39458 -8.19476,-6.53416 -11.66313,-3.01372 -1.61501,1.63929 -2.07654,1.30866 -2.07654,-1.488 0,-1.99321 -1.73516,-4.44509 -3.89336,-5.50161 -3.09986,-1.51742 -3.2762,-1.93016 -0.86524,-2.02479 11.03858,-0.43333 -8.76127,-8.73125 -24.18971,-10.13764 -17.5263,-1.59761 -31.15388,4.85003 -38.95198,18.42938 -2.46975,4.30075 -2.59968,5.5869 -0.72407,7.1669 1.72224,1.4508 4.27761,0.64345 10.36412,-3.27449 8.07486,-5.19783 9.72758,-4.66161 6.2077,2.01406 -2.88848,5.47822 -0.52508,5.91297 4.17287,0.76762 l 4.22436,-4.6266 1.09568,4.43114 c 0.75474,3.05227 2.27663,4.43115 4.89083,4.43115 3.4055,0 3.18388,0.5179 -2.15858,5.04499 -5.17925,4.38878 -5.64964,5.41685 -3.61618,7.90382 1.63874,2.00423 5.24838,2.8774 12.07548,2.92105 5.35588,0.0344 11.68473,1.19178 14.064,2.57236 5.9231,3.43679 7.36201,3.23886 5.27189,-0.72528 z m -25.21847,-23.06307 c -1.39581,-2.29242 2.25618,-6.94867 5.44992,-6.94867 3.16526,0 3.01952,2.61659 -0.33549,6.02194 -3.2117,3.25997 -3.6459,3.33864 -5.11443,0.92673 z m 158.27119,88.31138 c -6.84801,-3.63122 -10.16883,-6.7995 -13.17561,-12.57105 -7.37332,-14.15264 -3.7969,-37.75585 6.78747,-44.79514 2.29673,-1.52751 8.37277,-4.04238 13.50269,-5.5886 7.16991,-2.16123 11.1041,-4.80007 17.01258,-11.41092 4.2271,-4.72974 8.50445,-8.59954 9.50529,-8.59954 1.00077,0 3.46892,2.0997 5.48494,4.66597 l 3.66542,4.66596 5.45243,-3.26914 5.45232,-3.26915 5.23451,5.09029 c 4.05518,3.9435 5.69961,4.61804 7.29944,2.99418 1.13589,-1.15287 3.38858,-2.09612 5.00567,-2.09612 6.59586,0 4.68447,35.78573 -2.79736,52.37349 -8.87331,19.67323 -20.42993,26.61997 -44.33065,26.6474 -12.97759,0.014 -16.14797,-0.62149 -24.09914,-4.83763 z M 659.33613,792.58 c 0.62182,-5.30635 -4.66211,-9.18425 -10.11889,-7.42631 -4.5677,1.47146 -4.29955,3.99529 0.49791,4.68686 2.53615,0.36561 4.09076,1.97427 4.45949,4.6144 0.74422,5.3291 4.47618,3.97346 5.16149,-1.87495 z m -34.2794,-0.42177 c 1.155,-3.08344 2.94579,-4.39102 6.01372,-4.39102 5.55431,0 5.69489,-3.10802 0.20401,-4.50687 -5.71458,-1.45582 -11.40887,1.9933 -11.40887,6.91055 0,3.63461 1.25903,6.37834 2.92684,6.37834 0.34083,0 1.35992,-1.97594 2.2643,-4.391 z M 18.201071,846.16754 c 11.81125,-21.51189 29.458284,-51.37471 30.359189,-51.37471 0.660409,0 3.869192,4.93988 7.130589,10.9775 3.26143,6.03761 9.669148,17.30055 14.23942,25.02872 4.570269,7.72815 8.311072,14.64399 8.312877,15.36849 0.0021,0.72452 -13.669648,1.3173 -30.381035,1.3173 -16.711362,0 -30.058856,-0.59278 -29.66104,-1.3173 z m 62.26823,-0.8782 c 0.474474,-1.20753 7.134099,-13.26081 14.799171,-26.78511 l 13.936478,-24.58962 -30.252595,-0.87818 -30.252608,-0.8782 14.656173,-25.46782 c 8.060887,-14.00728 15.244963,-25.35612 15.964596,-25.21964 0.978678,0.18563 47.695794,80.76495 59.681254,102.94036 1.55386,2.87493 -0.31316,3.07371 -28.86695,3.07371 -23.729067,0 -30.336079,-0.48899 -29.665519,-2.1955 z M 229.22494,838.6481 c -4.58971,-1.87255 -5.22527,-9.42684 -1.24279,-14.77128 1.39732,-1.87514 2.54061,-4.83908 2.54061,-6.58649 0,-2.83855 -1.72318,-3.1771 -16.17071,-3.1771 -13.77159,0 -16.61868,-0.50238 -19.18987,-3.38618 -2.90351,-3.25652 -2.81843,-3.49151 2.2224,-6.13737 2.88279,-1.51315 6.40944,-4.44371 7.83692,-6.51236 2.56351,-3.71491 16.29735,-13.8008 18.81221,-13.81536 0.71378,-0.002 1.2978,1.57321 1.2978,3.50525 0,2.84371 1.15363,3.51282 6.05645,3.51282 3.33103,0 6.05646,-0.42718 6.05646,-0.94931 0,-0.52215 -1.75207,-3.35513 -3.89345,-6.29557 -4.9489,-6.79562 -5.08518,-19.1521 -0.27073,-24.5519 7.03253,-7.88758 12.1504,-9.07166 41.32128,-9.56022 15.25334,-0.25546 30.45359,-1.3296 33.77838,-2.38696 9.71108,-3.08836 10.86779,-2.66718 7.9853,2.90764 -3.57472,6.91359 -14.52423,17.00243 -23.28179,21.45173 -5.58708,2.83855 -10.60097,3.81121 -19.49904,3.78265 -6.58796,-0.0211 -12.72631,-0.5078 -13.64078,-1.08145 -2.39923,-1.5051 -8.65589,2.30679 -8.65589,5.2736 0,2.06219 2.45305,2.32582 13.55538,1.4568 11.36645,-0.88969 15.34825,-0.42657 24.65837,2.8679 12.28539,4.34732 25.7455,4.09265 37.04861,-0.70104 3.33687,-1.41517 6.06701,-1.97653 6.06701,-1.24749 0,3.08412 -9.16132,13.66187 -14.28907,16.49833 -7.42077,4.10482 -12.98527,3.87332 -22.33077,-0.92902 l -7.78934,-4.00268 0.77189,8.15374 c 0.62486,6.60085 0.13741,8.61755 -2.55973,10.58919 -5.03653,3.68185 -6.07065,6.38349 -3.9691,10.36932 2.64121,5.0092 0.97389,8.95158 -5.74416,13.58204 -5.86748,4.04424 -13.3062,5.30102 -13.3062,2.2481 0,-0.93711 2.38006,-3.48992 5.28905,-5.67291 3.98364,-2.98948 5.0064,-4.84483 4.14388,-7.5173 -0.62988,-1.9515 -1.64723,-6.91859 -2.26084,-11.03798 l -1.11565,-7.48982 -6.66691,3.63808 c -3.6668,2.00094 -9.4547,3.89199 -12.86198,4.20232 -4.36942,0.39796 -6.58433,1.63225 -7.51591,4.18844 -0.72647,1.9933 -3.37165,4.98811 -5.8782,6.65513 -3.89806,2.59248 -4.40085,3.87774 -3.47551,8.88438 0.59504,3.21941 0.85194,5.80338 0.57085,5.74213 -0.28104,-0.0613 -2.26306,-0.82613 -4.40443,-1.6998 z m 445.59251,-66.13734 c -4.48441,-4.57133 -4.9119,-4.67261 -7.71493,-1.8274 -2.80317,2.8452 -3.27645,2.70826 -8.54148,-2.47155 l -5.57405,-5.48364 -4.85334,3.87493 -4.85336,3.87496 -4.13211,-4.87626 c -4.0864,-4.82191 -4.19039,-4.84246 -9.33809,-1.84376 l -5.20566,3.03248 1.08952,-5.75835 c 1.38485,-7.31897 7.93704,-13.18478 17.6833,-15.83066 7.11881,-1.93254 7.6357,-2.47489 7.6357,-8.01037 l 0,-5.93751 7.35422,1.23323 c 4.0449,0.67829 7.61123,1.46956 7.92514,1.75842 0.31396,0.2888 -0.70948,2.50847 -2.27423,4.93256 -2.80169,4.33995 -2.75186,4.45232 3.24611,7.34126 7.52242,3.62323 13.63761,15.30297 12.84308,24.52987 l -0.54237,6.30127 -4.74745,-4.83948 z M 68.241836,648.76098 l 0.48736,-21.70442 35.040854,-0.47546 c 19.27246,-0.26151 35.04084,-0.0326 35.04084,0.50907 0,3.29555 -8.38145,16.63037 -14.89621,23.69978 -10.7099,11.62171 -25.264951,18.09432 -42.694746,18.9863 l -13.465447,0.68913 0.487349,-21.7044 z M 433.8462,665.98125 c -16.00588,-5.38353 -27.57666,-15.48508 -33.52106,-29.26448 -4.0163,-9.30984 -8.87406,-32.14291 -8.87406,-41.71056 0,-17.36844 9.17799,-37.96895 19.89977,-44.66623 9.91869,-6.19568 17.80309,-7.30894 30.04551,-4.24244 16.84803,4.2201 28.63048,10.40009 39.23278,20.5779 18.18125,17.45328 25.55961,42.39324 18.89988,63.8842 -4.09202,13.20506 -16.39984,27.06132 -28.87615,32.50911 -10.9986,4.80253 -27.34238,6.09581 -36.80667,2.9125 z m 31.2172,-17.99921 c 14.34995,-6.91177 16.44209,-26.05584 4.00797,-36.6756 -4.06092,-3.46835 -7.12361,-4.44848 -13.90083,-4.44848 -7.5377,0 -9.4557,0.77485 -14.43926,5.83323 -10.9615,11.12615 -8.8695,27.60629 4.42293,34.84214 7.2856,3.96601 12.36885,4.08057 19.90919,0.44871 z m -56.28925,-31.02478 c 4.6534,-7.74666 4.46473,-18.58587 -0.45147,-25.95086 -5.97526,-8.95124 -8.21955,-8.65879 -8.21955,1.07101 0,8.5843 3.25812,30.58818 4.5291,30.58818 0.39217,0 2.25606,-2.56876 4.14192,-5.70833 z m 62.14312,-30.45404 c 2.92822,-2.50093 5.32404,-5.96568 5.32404,-7.69943 0,-6.74605 -20.33434,-21.32226 -33.14944,-23.76252 -5.35677,-1.02001 -6.65362,-0.54656 -9.86942,3.60304 -4.74303,6.12034 -4.68056,11.09265 0.23232,18.49239 9.40786,14.16999 26.75902,18.50818 37.4625,9.36652 z m -234.99031,74.79961 c -9.31782,-2.23298 -14.92149,-9.1563 -14.92149,-18.43546 0,-7.00565 -0.4716,-7.92591 -4.52479,-8.8295 -11.68925,-2.60595 -16.83574,-15.41705 -13.66679,-34.02037 2.58142,-15.15384 7.55555,-24.98825 17.33501,-34.27316 13.24624,-12.57641 33.96719,-18.442 53.73414,-15.21081 23.43815,3.8313 40.36777,17.74556 46.62997,38.32468 6.9495,22.83783 3.3554,39.85693 -9.40617,44.5409 -5.7352,2.10502 -6.17636,2.78937 -6.17636,9.58102 0,10.28743 -4.75855,15.8079 -15.67429,18.18405 -9.91161,2.1576 -44.52906,2.24758 -53.32923,0.13865 z m 56.092,-6.05888 c 14.64819,-6.21234 9.61156,-27.68357 -7.63443,-32.54589 -8.50431,-2.39771 -35.48022,-2.25758 -43.64949,0.22675 -8.7314,2.65531 -13.7471,8.34686 -14.87456,16.87893 -1.17298,8.87678 1.55782,13.97119 8.59565,16.03532 9.40936,2.75969 50.658,2.33321 57.56283,-0.59511 z m -40.98418,-19.26742 c -1.55708,-3.46868 -1.55708,-5.58922 0,-9.05792 3.00615,-6.69685 6.30936,-4.32574 6.30936,4.52895 0,8.85471 -3.30321,11.22582 -6.30936,4.52897 z m 17.30411,0 c -1.55706,-3.46868 -1.55706,-5.58922 0,-9.05792 3.00615,-6.69685 6.30937,-4.32574 6.30937,4.52895 0,8.85471 -3.30322,11.22582 -6.30937,4.52897 z m 317.95141,16.10875 c -1.37914,-2.17355 -5.33531,-17.78356 -8.79152,-34.68892 -9.78903,-47.88173 -9.91346,-48.71265 -7.86663,-52.59457 2.89268,-5.48606 14.52551,-7.92567 27.39027,-5.7442 17.85573,3.02782 27.7438,12.98636 31.73478,31.96118 3.36329,15.99033 4.95171,14.10418 4.95171,-5.88001 0,-22.74921 1.17585,-25.70361 10.23151,-25.70361 7.94948,0 9.99934,2.1396 11.5639,12.06928 l 1.18204,7.50396 3.22235,-9.28733 c 4.96891,-14.32195 5.7876,-14.73971 20.29208,-10.35521 8.31967,2.51496 12.34205,4.60622 12.34205,6.41686 0,1.47729 -5.56595,10.88 -12.36891,20.89489 l -12.3689,18.20888 9.92673,16.65356 c 5.45959,9.15948 9.66299,18.01356 9.34072,19.67578 -0.69005,3.5582 -14.27568,8.2685 -19.96086,6.92063 -2.0907,-0.49568 -5.78211,-4.25585 -8.20307,-8.35593 l -4.40198,-7.45476 -0.0158,5.58285 c -0.0242,8.20624 -4.05167,11.38164 -13.63699,10.75139 l -8.01033,-0.52663 -0.96267,-17.56402 c -0.52953,-9.66019 -1.13063,-15.58804 -1.33585,-13.17299 -1.08642,12.78529 -12.60605,28.47555 -25.31738,34.48365 -10.95027,5.17564 -15.75059,5.22769 -18.93745,0.20527 z m 19.3021,-35.12802 c 5.21892,-5.67518 6.29541,-12.08674 3.26542,-19.44756 -2.61676,-6.35691 -9.08047,-9.93312 -13.23859,-7.32464 -2.19679,1.37806 -0.65458,22.42746 2.02576,27.6504 2.07529,4.04389 3.57322,3.87838 7.94741,-0.8782 z M 31.968551,648.39063 c -4.938606,-5.72089 -12.556105,-18.62128 -12.556105,-21.26408 0,-2.21132 17.447359,-0.8566 18.308646,1.42158 0.492752,1.30337 0.662981,7.76414 0.37828,14.35727 l -0.517594,11.98753 -5.613227,-6.5023 z m 762.668669,-0.2148 c 0,-0.45968 1.55439,-3.42361 3.45435,-6.58651 5.44101,-9.05829 4.66081,-11.89815 -3.26922,-11.89815 -4.60082,0 -7.07598,-0.89799 -7.8074,-2.83243 -0.76555,-2.02483 -1.68174,-2.31785 -3.21335,-1.02772 -3.42989,2.88908 -13.66475,-2.15225 -12.2054,-6.01201 0.87732,-2.32039 0.46928,-2.76875 -1.73718,-1.90933 -4.17207,1.62499 -10.26597,-5.53712 -9.01526,-10.59544 0.74682,-3.01998 0.23675,-3.96909 -2.13284,-3.96909 -1.84937,0 -3.88586,-2.07426 -5.01356,-5.10671 -1.54054,-4.14265 -1.37878,-5.63479 0.85666,-7.90381 2.52071,-2.55851 2.51251,-2.79707 -0.0941,-2.79707 -3.1682,0 -4.07929,-2.28544 -5.77661,-14.4903 -1.44153,-10.36581 -1.2826,-10.38079 20.68281,-1.95093 l 16.65517,6.39204 1.11039,7.04818 c 0.6108,3.87652 2.6244,8.58508 4.4751,10.46343 3.33259,3.38262 3.40833,3.36329 7.9562,-2.03087 2.81548,-3.33944 8.27286,-6.70559 14.10873,-8.70223 5.2345,-1.79091 10.87999,-3.84818 12.54557,-4.57169 2.44637,-1.06274 3.02821,-0.42493 3.02821,3.31986 0,2.54944 -1.12837,7.37628 -2.50724,10.72632 -2.13464,5.18552 -2.14685,6.09098 -0.0816,6.09098 8.25007,0 16.43213,-9.04246 16.43213,-18.15988 0,-3.81934 1.84201,-4.96995 17.01091,-10.62564 9.35611,-3.48836 17.92153,-6.34249 19.03449,-6.34249 4.64143,0 1.36777,20.78655 -3.56535,22.63883 -2.96092,1.11175 -3.05095,1.53082 -0.74669,3.47198 3.6792,3.09926 0.44107,12.53 -4.30209,12.53 -2.68526,0 -3.03653,0.61868 -1.71302,3.01905 2.40502,4.36189 -4.06036,13.31298 -8.56714,11.86111 -2.43502,-0.7845 -3.02837,-0.37734 -2.29149,1.57207 1.38221,3.65591 -8.98725,9.14129 -12.18641,6.4465 -1.68693,-1.42111 -2.52896,-1.22411 -3.28208,0.76786 -0.67629,1.78851 -3.33254,2.67943 -7.98889,2.67943 -8.49064,0 -9.10489,3.03019 -2.58746,12.76527 l 4.38829,6.55513 -3.81952,0 c -2.1008,0 -5.24351,-1.30808 -6.98407,-2.90682 -2.9445,-2.70483 -3.16452,-2.70483 -3.16452,0 0,3.29888 -3.56377,3.85601 -6.38018,0.99739 -1.35467,-1.37499 -2.2067,-1.37499 -3.04383,0 -1.80087,2.95754 -6.14959,2.25223 -6.14959,-0.99739 0,-2.70483 -0.21993,-2.70483 -3.16449,0 -2.89438,2.65873 -8.94841,4.0599 -8.94841,2.07108 z m 10.38229,-50.09988 c 0,-0.96602 -0.73257,-1.75641 -1.62812,-1.75641 -0.89549,0 -2.10963,0.79039 -2.69767,1.75641 -0.58826,0.96603 0.14417,1.7564 1.62813,1.7564 1.48382,0 2.69766,-0.79037 2.69766,-1.7564 z m -788.456982,14.8901 c -3.968118,-10.496 5.78168,-40.28538 16.641402,-50.84592 l 5.332299,-5.18537 -0.477222,28.9135 -0.477229,28.9135 -9.970792,0.52739 c -7.923115,0.41906 -10.192128,-0.0579 -11.048458,-2.3231 z m 52.489201,1.53762 c -0.653265,-0.66306 -1.187737,-16.86638 -1.187737,-36.0074 l 0,-34.8018 4.715734,-1.20136 c 7.186899,-1.83089 27.679344,2.4049 37.271484,7.70399 19.39556,10.71495 33.57548,35.76276 32.10603,56.71293 l -0.55073,7.85173 -35.58352,0.47375 c -19.570958,0.26054 -36.118025,-0.0688 -36.771261,-0.73184 z"
       id="path3347"
       inkscape:connector-curvature="0" />
    <path
       style="fill:#000000"
       d="m 1124.1617,1040.3484 c -9.5445,-3.048 -13.9223,-5.6245 -21.7455,-12.7984 -8.5804,-7.8685 -13.4731,-15.9416 -16.3351,-26.954 l -2.2709,-8.73759 15.3727,0 c 15.2706,0 15.3901,0.0351 18.0109,5.17842 1.451,2.84816 5.2433,7.19517 8.4272,9.66027 11.7157,9.0702 30.8072,4.4215 37.3329,-9.09045 l 2.7377,-5.66842 15.1411,-0.0403 c 16.8769,-0.0443 16.8347,-0.0845 12.6155,12.05317 -10.0073,28.7899 -41.4261,45.2943 -69.2865,36.3969 z m 332.0307,-5.2409 c 5.3016,-21.44 8.771,-25.8655 40.0079,-51.0332 10.469,-8.43492 20.3493,-17.38097 21.9563,-19.88007 2.6185,-4.07242 2.657,-5.06285 0.3732,-9.54613 -2.1172,-4.15547 -3.1045,-4.70026 -5.8327,-3.21824 -1.8063,0.98121 -3.8115,3.47005 -4.4559,5.53077 -0.9203,2.94302 -1.4965,3.226 -2.6862,1.31917 -2.2944,-3.67695 -1.8678,-9.91685 1.0722,-15.6878 2.3329,-4.57906 3.5504,-5.18197 10.463,-5.18197 6.9067,0 8.1682,0.62316 10.7707,5.32088 2.3988,4.33019 3.9144,5.22957 8.1388,4.83011 4.0869,-0.38637 5.8793,-1.92046 8.4245,-7.20968 5.1463,-10.69521 16.6666,-13.56159 16.6666,-4.14687 0,4.40802 -3.074,7.74962 -10.6694,11.59822 -4.1184,2.08685 -6.5425,6.34853 -6.611,11.62273 -0.011,0.99924 2.3124,3.21747 5.1675,4.92941 4.5985,2.7572 5.19,4.05387 5.1803,11.35621 -0.01,7.19875 -0.629,8.60034 -4.8871,11.05841 -4.7097,2.7187 -15.8668,2.65006 -15.8668,-0.0977 0,-0.70134 1.9468,-2.17543 4.326,-3.2758 5.273,-2.43864 5.5869,-6.53661 0.7039,-9.18915 -7.1359,-3.87643 -11.2218,-0.44768 -33.4075,28.0349 l -21.7814,27.9634 -11.6917,3.9169 c -6.4305,2.1541 -12.7817,4.3263 -14.114,4.8268 -1.8623,0.6996 -2.1504,-0.188 -1.2472,-3.8413 z m 78.5962,-71.70275 c 2.8684,-2.9115 2.6095,-8.43074 -0.3956,-8.43074 -3.1872,0 -7.9105,4.79413 -7.9105,8.02928 0,3.05009 5.4376,3.31292 8.3061,0.40146 z M 914.72676,1030.08 c 4.7284,-4.1166 10.47995,-9.1173 12.78125,-11.1127 l 4.18416,-3.6278 -4.47774,-6.9105 c -8.29822,-12.80646 -9.60371,-29.17977 -3.35181,-42.03838 8.19595,-16.85694 28.30145,-26.63575 45.24355,-22.00517 6.5455,1.78901 8.2828,1.44014 21.2645,-4.27004 7.7752,-3.41999 14.48353,-6.21819 14.90743,-6.21819 0.4239,0 -2.9235,4.38903 -7.43863,9.7534 l -8.2093,9.75344 5.6115,11.22156 c 5.01203,10.0228 5.53453,12.44818 4.89113,22.70381 -0.84853,13.52527 -6.43453,23.10067 -18.49553,31.70427 -7.1006,5.065 -8.3338,5.3291 -25.9078,5.5462 -16.93,0.2093 -19.7373,0.7544 -34.02609,6.6063 l -15.5737,6.3782 8.59708,-7.4844 z m 69.77861,-27.919 5.6984,-2.39878 -11.441,-12.7101 -11.441,-12.71011 12.0825,-14.51409 c 6.6454,-7.98276 11.8752,-14.72671 11.6219,-14.98661 -0.596,-0.61154 -56.8333,24.07991 -58.3917,25.63741 -0.65,0.64962 4.1925,7.50414 10.7611,15.23231 l 11.943,14.05119 -8.9886,7.90388 c -21.49889,18.9043 -21.9209,18.4383 6.5008,7.1774 14.2759,-5.6561 28.5205,-11.3632 31.6546,-12.6825 z m 662.97053,29.6139 c -12.0118,-8.2165 -17.2456,-21.3114 -13.7636,-34.43633 2.7406,-10.33117 7.7143,-15.06894 37.2598,-35.49209 42.645,-29.47833 48.3209,-31.63308 63.212,-23.99737 16.8404,8.63536 22.1868,29.53418 11.5861,45.28948 -2.2778,3.3853 -17.8233,15.30609 -38.049,29.17681 l -34.1977,23.453 -10.1045,0 c -7.6447,0 -11.5259,-0.9721 -15.9431,-3.9935 z m 77.0663,-39.04216 c 16.1583,-11.41584 19.9454,-16.541 19.9609,-27.01301 0.011,-9.62644 -4.9901,-18.20257 -12.8228,-21.97531 -10.6635,-5.13611 -16.4754,-3.79401 -33.9198,7.83255 l -15.9853,10.65415 4.1156,2.78821 c 11.9219,8.07662 22.2259,23.54352 22.268,33.42561 0.01,2.17346 0.6217,3.95196 1.3608,3.95196 0.739,0 7.4992,-4.34886 15.0226,-9.66416 z m -446.5899,35.04376 c -1.6384,-2.5381 -3.9055,-4.0605 -5.2312,-3.5129 -1.2868,0.5316 -3.5076,1.4462 -4.9352,2.0325 -3.4517,1.4177 -3.4218,-3.4527 0.039,-6.3681 2.3592,-1.9874 2.3592,-2.646 0,-6.3006 -3.7065,-5.742 -3.3159,-9.4742 0.9917,-9.4742 1.9944,0 5.8223,-1.5874 8.5064,-3.5273 10.7714,-7.78486 20.8818,-5.30498 23.4626,5.7553 0.9678,4.1479 -0.014,6.0302 -6.6893,12.804 -4.3031,4.3677 -8.2601,9.0954 -8.7933,10.5061 -1.4412,3.8121 -4.1012,3.119 -7.3507,-1.9148 z m 96.4055,1.5789 c -4.0975,-2.9131 -15.7253,-26.0477 -15.7253,-31.28717 0,-2.24098 -1.6459,-2.7036 -8.2194,-2.31053 -9.3773,0.56096 -11.1895,-2.15285 -3.1902,-4.77752 4.6347,-1.52063 5.3532,-2.58141 5.3532,-7.90377 0,-5.27343 -0.6241,-6.22127 -4.3895,-6.667 -2.7861,-0.32979 -7.1598,1.51735 -11.9731,5.0564 -6.4229,4.7226 -7.8698,5.18311 -9.4538,3.00896 -1.0286,-1.41187 -4.2063,-3.69465 -7.0615,-5.07284 -9.4537,-4.5633 -7.0205,-16.9833 2.9314,-14.96302 4.0092,0.81389 4.8555,0.38109 4.8555,-2.4832 0,-2.48159 -1.171,-3.46889 -4.1142,-3.46889 -4.2951,0 -8.7994,-3.87101 -6.83,-5.8699 0.6262,-0.63564 3.3708,-1.15569 6.099,-1.15569 3.3203,0 6.8786,-1.94681 10.7611,-5.88761 8.9169,-9.05084 19.9572,-9.8958 34.2805,-2.62363 15.4514,7.84489 17.95,35.14965 4.2366,46.29674 l -5.4987,4.46969 4.1786,3.53887 c 2.2982,1.94636 5.0236,3.18491 6.0564,2.75231 8.4561,-3.54203 7.9344,-4.49528 7.9344,14.4961 0,15.8402 -0.3313,17.7521 -3.0759,17.7521 -1.6917,0 -4.9115,-1.3053 -7.1551,-2.9004 z m -36.2362,-11.2868 c -9.5982,-1.9102 -21.6775,-9.0734 -26.5265,-15.7304 -2.0733,-2.84641 -5.1863,-5.63161 -6.9179,-6.1894 -4.1639,-1.34144 -4.0572,-8.18022 0.1885,-12.08025 4.3265,-3.97429 10.2147,-2.15312 11.3677,3.51596 0.4781,2.35063 1.2597,6.19474 1.737,8.54224 1.3037,6.41175 5.2382,9.44355 13.9829,10.77435 5.5633,0.847 9.9946,0.3608 15.0363,-1.6495 8.194,-3.2671 9.1984,-2.6768 10.8356,6.3665 1.1214,6.194 0.9317,6.5861 -3.1846,6.5861 -2.4075,0 -5.4142,0.3069 -6.6817,0.6818 -1.2675,0.3747 -5.6943,0.013 -9.8374,-0.8174 z m -210.3453,-21.07572 c -8.4111,-10.14612 -5.0678,-24.00285 6.746,-27.96035 14.9663,-5.01349 28.0924,10.24259 20.922,24.31686 -3.4588,6.78911 -7.5291,9.04751 -16.3065,9.04751 -5.5601,0 -7.742,-1.0378 -11.3615,-5.40402 z m -42.954,-18.42591 c -1.3195,-1.33931 1.7964,-12.48692 5.6126,-20.08015 4.3222,-8.60014 16.3891,-20.23775 25.791,-24.87361 11.6745,-5.75642 30.8677,-6.44546 43.6637,-1.56751 17.2856,6.58933 32.1432,23.83363 35.2663,40.93142 l 1.203,6.58652 -15.5787,0 c -14.9803,0 -15.6185,-0.16107 -16.616,-4.19532 -1.5649,-6.32873 -11.8941,-14.59563 -19.9663,-15.97989 -9.8569,-1.69033 -21.3838,4.08598 -26.5768,13.31807 l -3.8419,6.83007 -13.9875,0.014 c -7.6932,0.008 -14.4294,-0.43498 -14.9694,-0.98315 z M 1664.174,860.88114 c -2.0842,-2.11542 -2.7193,-6.59437 -2.7193,-19.17676 0,-9.02919 -0.468,-17.65447 -1.0399,-19.16732 -0.5719,-1.51281 -5.8281,-6.23417 -11.6803,-10.49188 -13.6943,-9.9631 -19.1562,-15.95445 -17.8046,-19.52991 0.5833,-1.54274 6.3272,-5.17776 12.7644,-8.07782 25.3163,-11.40547 23.1574,-9.29284 29.8733,-29.23295 3.3311,-9.89015 6.9462,-18.85515 8.0337,-19.92224 3.1962,-3.13635 8.2165,0.72745 20.4562,15.74403 l 11.184,13.7214 15.4369,1.11219 c 26.9408,1.94105 29.2542,4.89471 18.199,23.23761 -13.108,21.74898 -12.3454,18.08667 -7.0694,33.95144 8.904,26.77381 6.0024,30.9503 -17.3057,24.90986 -18.3431,-4.75371 -20.9878,-4.61501 -29.2235,1.53247 -6.3534,4.74254 -23.282,14.14992 -25.4628,14.14992 -0.5076,0 -2.1464,-1.242 -3.642,-2.76004 z m -357.6913,-4.10868 c -13.6015,-4.41585 -25.1326,-13.30625 -32.8188,-25.3029 -19.9621,-31.15659 -8.3811,-71.46644 25.3636,-88.28371 8.9178,-4.44428 12.2476,-5.12731 24.9968,-5.12731 12.5248,0 16.1397,0.71345 24.3486,4.80547 12.5668,6.26433 24.4839,18.35189 30.4164,30.8514 5.9907,12.62182 6.8095,33.4636 1.8024,45.87512 -7.4431,18.44958 -22.5536,32.41759 -40.8752,37.78463 -12.0231,3.52203 -21.0324,3.35863 -33.2338,-0.6027 z m 36.0093,-6.29614 c 9.5288,-2.87224 23.3093,-13.95693 27.4463,-22.07703 3.6596,-7.18342 3.2672,-7.4465 -3.9515,-2.6483 -3.569,2.37231 -11.3558,6.43875 -17.3041,9.03652 -8.6738,3.78809 -10.8151,5.50408 -10.8151,8.66699 0,3.8996 -0.083,3.91323 -7.4723,1.21639 -8.852,-3.23096 -14.9962,-1.91526 -11.4291,2.44733 2.0027,2.44939 1.4952,2.63029 -4.5638,1.62673 -6.3865,-1.05784 -6.6049,-0.9559 -3.4581,1.61432 4.3435,3.54766 19.9743,3.60563 31.5477,0.11694 z m -10.6192,-14.74047 c -0.8299,-2.65404 0.4794,-3.95228 6.5611,-6.50545 7.4207,-3.11535 7.5161,-3.25693 4.0924,-6.07091 -2.3444,-1.92692 -3.1083,-3.93151 -2.3065,-6.05246 1.1257,-2.97764 1.4407,-2.94073 5.1587,0.60462 8.1097,7.73307 8.7113,3.1355 0.7883,-6.02391 -5.1106,-5.90803 -5.3104,-6.58275 -2.5553,-8.62757 2.7998,-2.07806 2.7785,-2.27412 -0.3368,-3.10104 -2.3908,-0.63459 -4.7126,1.00571 -8.2598,5.83563 -2.8956,3.9426 -6.6664,6.9395 -9.1267,7.25367 -5.7629,0.73586 -6.4358,4.26246 -1.0741,5.6284 5.7359,1.46121 5.7703,6.89514 0.075,11.9211 -5.219,4.60606 -5.5504,6.69338 -0.8652,5.44975 1.935,-0.51357 3.4608,-0.0538 3.4608,1.04265 0,1.07869 1.2205,1.96125 2.7123,1.96125 1.871,0 2.3906,-1.02837 1.6754,-3.31573 z m -0.9269,-7.88378 c 0,-1.62906 1.2017,-3.42998 2.6703,-4.00199 4.1989,-1.63548 4.6055,0.28055 0.8012,3.77515 -3.1679,2.90996 -3.4715,2.9298 -3.4715,0.22684 z m -22.2387,2.58955 c 2.3014,-1.8374 6.1052,-3.61574 8.4529,-3.95188 4.6499,-0.66579 5.1418,-3.18204 1.1247,-5.75399 -1.8177,-1.16381 -4.119,-0.28642 -8.0458,3.0674 -4.3095,3.68058 -6.1974,4.31855 -8.7217,2.94732 -4.4663,-2.4262 -5.1796,-2.22378 -5.1796,1.46997 0,6.49139 5.732,7.52069 12.3695,2.22118 z m -21.8867,-8.95406 c -5.2539,-5.56617 -7.7869,-6.61102 -7.7869,-3.21199 0,3.4302 5.5052,8.4812 9.2439,8.4812 3.2112,0 3.0847,-0.45747 -1.457,-5.26921 z m 72.5646,1.7999 c 5.7952,-2.23645 5.6034,-5.31101 -0.7526,-12.06179 -2.8552,-3.03255 -5.1912,-6.40808 -5.1912,-7.50118 0,-1.40612 -0.746,-1.359 -2.5506,0.16108 -2.2086,1.86051 -1.9605,2.93384 1.8509,8.00584 3.623,4.82137 4.0633,6.49854 2.4897,9.48309 -2.183,4.14024 -1.9254,4.25888 4.1538,1.91286 z m 13.017,-26.5294 c -1.5877,-3.01128 -2.3453,-3.32746 -3.4856,-1.45482 -0.919,1.50935 -0.3875,3.59202 1.4396,5.64127 3.5069,3.93325 4.8636,1.15726 2.046,-4.18645 z m -86.0896,-5.5684 c -1.8622,-3.13956 -3.0564,-6.6124 -2.6538,-7.71735 0.9167,-2.51576 7.8742,-0.88001 9.7368,2.28913 1.9954,3.39524 6.4077,2.89758 6.3765,-0.71919 -0.05,-5.72055 -3.065,-8.1719 -10.2792,-8.35562 -4.7012,-0.11972 -7.9877,0.84577 -9.8007,2.87911 -2.5099,2.81504 -2.2766,3.62895 2.9226,10.19575 6.8135,8.60585 8.2944,9.17782 3.6978,1.42817 z m 56.827,-1.16437 c -0.9744,-1.84794 -5.2689,-4.71555 -9.5433,-6.37249 -8.3613,-3.24119 -8.8841,-7.07727 -0.7391,-5.42381 4.3126,0.87548 4.9002,0.5106 4.5488,-2.82476 -0.5462,-5.184 4.3421,-5.98574 12.8243,-2.10341 l 6.7488,3.08903 -3.5931,3.88219 c -3.0847,3.33282 -3.2126,4.0304 -0.9037,4.92971 4.9529,1.92915 7.386,-0.53029 7.1973,-7.27529 -0.169,-6.03563 -0.6098,-6.55858 -6.2186,-7.37451 -4.1367,-0.6018 -6.2341,-1.92469 -6.6635,-4.20309 -0.5195,-2.75529 0.07,-3.11218 3.4412,-2.08339 2.2374,0.68281 6.404,1.38863 9.2591,1.56848 4.1,0.25826 5.5551,1.43469 6.9217,5.59623 2.2536,6.86247 4.0999,9.66016 6.3748,9.66016 2.7473,0 0.3235,-9.95929 -3.8829,-15.95539 -3.7844,-5.39458 -8.1947,-6.53416 -11.6631,-3.01372 -1.615,1.63929 -2.0765,1.30866 -2.0765,-1.488 0,-1.99321 -1.7352,-4.44509 -3.8934,-5.50161 -3.0998,-1.51742 -3.2762,-1.93016 -0.8652,-2.02479 11.0386,-0.43333 -8.7613,-8.73125 -24.1897,-10.13764 -17.5263,-1.59761 -31.1539,4.85003 -38.952,18.42938 -2.4698,4.30075 -2.5997,5.5869 -0.7241,7.1669 1.7223,1.4508 4.2776,0.64345 10.3641,-3.27449 8.0749,-5.19783 9.7276,-4.66161 6.2077,2.01406 -2.8884,5.47822 -0.525,5.91297 4.1729,0.76762 l 4.2244,-4.6266 1.0956,4.43114 c 0.7548,3.05227 2.2767,4.43115 4.8909,4.43115 3.4055,0 3.1839,0.5179 -2.1586,5.04499 -5.1793,4.38878 -5.6496,5.41685 -3.6162,7.90382 1.6388,2.00423 5.2484,2.8774 12.0755,2.92105 5.3559,0.0344 11.6847,1.19178 14.064,2.57236 5.9231,3.43679 7.362,3.23886 5.2719,-0.72528 z m -25.2185,-23.06307 c -1.3958,-2.29242 2.2562,-6.94867 5.4499,-6.94867 3.1653,0 3.0196,2.61659 -0.3355,6.02194 -3.2117,3.25997 -3.6459,3.33864 -5.1144,0.92673 z m 158.2712,88.31138 c -6.848,-3.63122 -10.1688,-6.7995 -13.1756,-12.57105 -7.3733,-14.15264 -3.7969,-37.75585 6.7875,-44.79514 2.2967,-1.52751 8.3727,-4.04238 13.5027,-5.5886 7.1699,-2.16123 11.1041,-4.80007 17.0125,-11.41092 4.2271,-4.72974 8.5045,-8.59954 9.5053,-8.59954 1.0008,0 3.4689,2.0997 5.485,4.66597 l 3.6654,4.66596 5.4524,-3.26914 5.4523,-3.26915 5.2345,5.09029 c 4.0552,3.9435 5.6997,4.61804 7.2995,2.99418 1.1359,-1.15287 3.3886,-2.09612 5.0057,-2.09612 6.5958,0 4.6844,35.78573 -2.7974,52.37349 -8.8733,19.67323 -20.4299,26.61997 -44.3307,26.6474 -12.9775,0.014 -16.1479,-0.62149 -24.0991,-4.83763 z m 60.3439,-57.07566 c 0.6219,-5.30635 -4.6621,-9.18425 -10.1189,-7.42631 -4.5677,1.47146 -4.2995,3.99529 0.498,4.68686 2.5361,0.36561 4.0907,1.97427 4.4594,4.6144 0.7443,5.3291 4.4762,3.97346 5.1615,-1.87495 z m -34.2794,-0.42177 c 1.155,-3.08344 2.9458,-4.39102 6.0138,-4.39102 5.5543,0 5.6948,-3.10802 0.204,-4.50687 -5.7146,-1.45582 -11.4089,1.9933 -11.4089,6.91055 0,3.63461 1.259,6.37834 2.9268,6.37834 0.3409,0 1.36,-1.97594 2.2643,-4.391 z m -606.85566,54.00931 c 11.81125,-21.51189 29.45829,-51.37471 30.35919,-51.37471 0.66041,0 3.8692,4.93988 7.13064,10.9775 3.2614,6.03761 9.6691,17.30055 14.2394,25.02872 4.5702,7.72815 8.311,14.64399 8.3128,15.36849 0,0.72452 -13.6696,1.3173 -30.38099,1.3173 -16.71136,0 -30.05885,-0.59278 -29.66104,-1.3173 z m 62.26823,-0.8782 c 0.4745,-1.20753 7.1341,-13.26081 14.7992,-26.78511 l 13.9365,-24.58962 -30.2526,-0.87818 -30.25265,-0.8782 14.65615,-25.46782 c 8.0609,-14.00728 15.245,-25.35612 15.9646,-25.21964 0.9787,0.18563 47.69583,80.76495 59.68133,102.94036 1.5538,2.87493 -0.3132,3.07371 -28.86703,3.07371 -23.729,0 -30.3361,-0.48899 -29.6655,-2.1955 z m 148.75563,-6.64124 c -4.5897,-1.87255 -5.2252,-9.42684 -1.2427,-14.77128 1.3973,-1.87514 2.5406,-4.83908 2.5406,-6.58649 0,-2.83855 -1.7232,-3.1771 -16.1707,-3.1771 -13.7716,0 -16.6187,-0.50238 -19.1899,-3.38618 -2.9035,-3.25652 -2.8184,-3.49151 2.2224,-6.13737 2.8828,-1.51315 6.4094,-4.44371 7.8369,-6.51236 2.5635,-3.71491 16.2974,-13.8008 18.8122,-13.81536 0.7138,-0.002 1.2978,1.57321 1.2978,3.50525 0,2.84371 1.1536,3.51282 6.0565,3.51282 3.331,0 6.0564,-0.42718 6.0564,-0.94931 0,-0.52215 -1.752,-3.35513 -3.8934,-6.29557 -4.9489,-6.79562 -5.0852,-19.1521 -0.2708,-24.5519 7.0326,-7.88758 12.1504,-9.07166 41.3213,-9.56022 15.2534,-0.25546 30.4536,-1.3296 33.7784,-2.38696 9.7111,-3.08836 10.8678,-2.66718 7.9853,2.90764 -3.5747,6.91359 -14.5242,17.00243 -23.2818,21.45173 -5.5871,2.83855 -10.601,3.81121 -19.499,3.78265 -6.588,-0.0211 -12.7263,-0.5078 -13.6408,-1.08145 -2.3992,-1.5051 -8.6559,2.30679 -8.6559,5.2736 0,2.06219 2.4531,2.32582 13.5554,1.4568 11.3664,-0.88969 15.3482,-0.42657 24.6584,2.8679 12.2853,4.34732 25.7455,4.09265 37.0486,-0.70104 3.3368,-1.41517 6.067,-1.97653 6.067,-1.24749 0,3.08412 -9.1613,13.66187 -14.2891,16.49833 -7.4208,4.10482 -12.9853,3.87332 -22.3308,-0.92902 l -7.7893,-4.00268 0.7719,8.15374 c 0.6248,6.60085 0.1374,8.61755 -2.5597,10.58919 -5.0366,3.68185 -6.0707,6.38349 -3.9691,10.36932 2.6412,5.0092 0.9738,8.95158 -5.7442,13.58204 -5.8675,4.04424 -13.3062,5.30102 -13.3062,2.2481 0,-0.93711 2.3801,-3.48992 5.289,-5.67291 3.9837,-2.98948 5.0064,-4.84483 4.1439,-7.5173 -0.6299,-1.9515 -1.6472,-6.91859 -2.2608,-11.03798 l -1.1157,-7.48982 -6.6669,3.63808 c -3.6668,2.00094 -9.4547,3.89199 -12.862,4.20232 -4.3694,0.39796 -6.5843,1.63225 -7.5159,4.18844 -0.7264,1.9933 -3.3716,4.98811 -5.8782,6.65513 -3.898,2.59248 -4.4008,3.87774 -3.4755,8.88438 0.5951,3.21941 0.852,5.80338 0.5709,5.74213 -0.2811,-0.0613 -2.2631,-0.82613 -4.4045,-1.6998 z m 445.5926,-66.13734 c -4.4845,-4.57133 -4.9119,-4.67261 -7.715,-1.8274 -2.8031,2.8452 -3.2764,2.70826 -8.5415,-2.47155 l -5.574,-5.48364 -4.8533,3.87493 -4.8534,3.87496 -4.1321,-4.87626 c -4.0864,-4.82191 -4.1904,-4.84246 -9.3381,-1.84376 l -5.2057,3.03248 1.0896,-5.75835 c 1.3848,-7.31897 7.937,-13.18478 17.6833,-15.83066 7.1188,-1.93254 7.6357,-2.47489 7.6357,-8.01037 l 0,-5.93751 7.3542,1.23323 c 4.0449,0.67829 7.6112,1.46956 7.9251,1.75842 0.314,0.2888 -0.7095,2.50847 -2.2742,4.93256 -2.8017,4.33995 -2.7519,4.45232 3.2461,7.34126 7.5224,3.62323 13.6376,15.30297 12.8431,24.52987 l -0.5424,6.30127 -4.7474,-4.83948 z m -606.57573,-123.74978 0.4874,-21.70442 35.0409,-0.47546 c 19.27243,-0.26151 35.04083,-0.0326 35.04083,0.50907 0,3.29555 -8.3815,16.63037 -14.8962,23.69978 -10.70993,11.62171 -25.26503,18.09432 -42.69483,18.9863 l -13.4654,0.68913 0.4873,-21.7044 z m 365.60443,17.22027 c -16.0059,-5.38353 -27.5767,-15.48508 -33.5211,-29.26448 -4.0163,-9.30984 -8.874,-32.14291 -8.874,-41.71056 0,-17.36844 9.178,-37.96895 19.8998,-44.66623 9.9186,-6.19568 17.803,-7.30894 30.0455,-4.24244 16.848,4.2201 28.6304,10.40009 39.2327,20.5779 18.1813,17.45328 25.5597,42.39324 18.8999,63.8842 -4.092,13.20506 -16.3998,27.06132 -28.8761,32.50911 -10.9986,4.80253 -27.3424,6.09581 -36.8067,2.9125 z m 31.2172,-17.99921 c 14.35,-6.91177 16.4421,-26.05584 4.008,-36.6756 -4.0609,-3.46835 -7.1236,-4.44848 -13.9009,-4.44848 -7.5377,0 -9.4557,0.77485 -14.4392,5.83323 -10.9615,11.12615 -8.8695,27.60629 4.4229,34.84214 7.2856,3.96601 12.3689,4.08057 19.9092,0.44871 z m -56.2892,-31.02478 c 4.6534,-7.74666 4.4647,-18.58587 -0.4515,-25.95086 -5.9753,-8.95124 -8.2196,-8.65879 -8.2196,1.07101 0,8.5843 3.2582,30.58818 4.5291,30.58818 0.3922,0 2.2561,-2.56876 4.142,-5.70833 z m 62.1431,-30.45404 c 2.9282,-2.50093 5.324,-5.96568 5.324,-7.69943 0,-6.74605 -20.3343,-21.32226 -33.1494,-23.76252 -5.3568,-1.02001 -6.6536,-0.54656 -9.8694,3.60304 -4.7431,6.12034 -4.6806,11.09265 0.2323,18.49239 9.4078,14.16999 26.759,18.50818 37.4625,9.36652 z m -234.9903,74.79961 c -9.3179,-2.23298 -14.9215,-9.1563 -14.9215,-18.43546 0,-7.00565 -0.4716,-7.92591 -4.5248,-8.8295 -11.6893,-2.60595 -16.8358,-15.41705 -13.6668,-34.02037 2.5814,-15.15384 7.5555,-24.98825 17.335,-34.27316 13.2462,-12.57641 33.9672,-18.442 53.7341,-15.21081 23.4382,3.8313 40.3678,17.74556 46.63,38.32468 6.9495,22.83783 3.3554,39.85693 -9.4062,44.5409 -5.7352,2.10502 -6.1763,2.78937 -6.1763,9.58102 0,10.28743 -4.7586,15.8079 -15.6743,18.18405 -9.9116,2.1576 -44.5291,2.24758 -53.3292,0.13865 z m 56.092,-6.05888 c 14.6482,-6.21234 9.6115,-27.68357 -7.6345,-32.54589 -8.5043,-2.39771 -35.4802,-2.25758 -43.6495,0.22675 -8.7314,2.65531 -13.7471,8.34686 -14.8745,16.87893 -1.173,8.87678 1.5578,13.97119 8.5956,16.03532 9.4094,2.75969 50.658,2.33321 57.5629,-0.59511 z m -40.9842,-19.26742 c -1.5571,-3.46868 -1.5571,-5.58922 0,-9.05792 3.0061,-6.69685 6.3093,-4.32574 6.3093,4.52895 0,8.85471 -3.3032,11.22582 -6.3093,4.52897 z m 17.3041,0 c -1.5571,-3.46868 -1.5571,-5.58922 0,-9.05792 3.0061,-6.69685 6.3094,-4.32574 6.3094,4.52895 0,8.85471 -3.3033,11.22582 -6.3094,4.52897 z m 317.9514,16.10875 c -1.3791,-2.17355 -5.3353,-17.78356 -8.7915,-34.68892 -9.789,-47.88173 -9.9135,-48.71265 -7.8666,-52.59457 2.8926,-5.48606 14.5255,-7.92567 27.3902,-5.7442 17.8558,3.02782 27.7438,12.98636 31.7348,31.96118 3.3633,15.99033 4.9517,14.10418 4.9517,-5.88001 0,-22.74921 1.1759,-25.70361 10.2315,-25.70361 7.9495,0 9.9994,2.1396 11.5639,12.06928 l 1.1821,7.50396 3.2223,-9.28733 c 4.9689,-14.32195 5.7876,-14.73971 20.2921,-10.35521 8.3197,2.51496 12.342,4.60622 12.342,6.41686 0,1.47729 -5.5659,10.88 -12.3689,20.89489 l -12.3689,18.20888 9.9268,16.65356 c 5.4596,9.15948 9.663,18.01356 9.3407,19.67578 -0.6901,3.5582 -14.2757,8.2685 -19.9609,6.92063 -2.0907,-0.49568 -5.7821,-4.25585 -8.203,-8.35593 l -4.402,-7.45476 -0.016,5.58285 c -0.024,8.20624 -4.0517,11.38164 -13.637,10.75139 l -8.0103,-0.52663 -0.9627,-17.56402 c -0.5295,-9.66019 -1.1306,-15.58804 -1.3359,-13.17299 -1.0864,12.78529 -12.606,28.47555 -25.3173,34.48365 -10.9503,5.17564 -15.7506,5.22769 -18.9375,0.20527 z m 19.3021,-35.12802 c 5.2189,-5.67518 6.2954,-12.08674 3.2654,-19.44756 -2.6167,-6.35691 -9.0804,-9.93312 -13.2386,-7.32464 -2.1968,1.37806 -0.6545,22.42746 2.0258,27.6504 2.0753,4.04389 3.5732,3.87838 7.9474,-0.8782 z m -573.62388,31.43337 c -4.9386,-5.72089 -12.5561,-18.62128 -12.5561,-21.26408 0,-2.21132 17.44736,-0.8566 18.30865,1.42158 0.49275,1.30337 0.66298,7.76414 0.37828,14.35727 l -0.5176,11.98753 -5.61323,-6.5023 z m 762.66868,-0.2148 c 0,-0.45968 1.5544,-3.42361 3.4544,-6.58651 5.441,-9.05829 4.6608,-11.89815 -3.2692,-11.89815 -4.6009,0 -7.076,-0.89799 -7.8074,-2.83243 -0.7656,-2.02483 -1.6818,-2.31785 -3.2134,-1.02772 -3.4299,2.88908 -13.6647,-2.15225 -12.2054,-6.01201 0.8773,-2.32039 0.4693,-2.76875 -1.7372,-1.90933 -4.172,1.62499 -10.2659,-5.53712 -9.0152,-10.59544 0.7468,-3.01998 0.2367,-3.96909 -2.1329,-3.96909 -1.8493,0 -3.8858,-2.07426 -5.0135,-5.10671 -1.5406,-4.14265 -1.3788,-5.63479 0.8566,-7.90381 2.5207,-2.55851 2.5125,-2.79707 -0.094,-2.79707 -3.1682,0 -4.0793,-2.28544 -5.7766,-14.4903 -1.4415,-10.36581 -1.2826,-10.38079 20.6828,-1.95093 l 16.6552,6.39204 1.1104,7.04818 c 0.6108,3.87652 2.6244,8.58508 4.4751,10.46343 3.3326,3.38262 3.4083,3.36329 7.9562,-2.03087 2.8155,-3.33944 8.2728,-6.70559 14.1087,-8.70223 5.2345,-1.79091 10.88,-3.84818 12.5456,-4.57169 2.4464,-1.06274 3.0282,-0.42493 3.0282,3.31986 0,2.54944 -1.1284,7.37628 -2.5072,10.72632 -2.1347,5.18552 -2.1469,6.09098 -0.082,6.09098 8.25,0 16.4321,-9.04246 16.4321,-18.15988 0,-3.81934 1.842,-4.96995 17.0109,-10.62564 9.3561,-3.48836 17.9215,-6.34249 19.0345,-6.34249 4.6414,0 1.3678,20.78655 -3.5654,22.63883 -2.9609,1.11175 -3.0509,1.53082 -0.7467,3.47198 3.6792,3.09926 0.4411,12.53 -4.302,12.53 -2.6853,0 -3.0366,0.61868 -1.7131,3.01905 2.4051,4.36189 -4.0603,13.31298 -8.5671,11.86111 -2.435,-0.7845 -3.0284,-0.37734 -2.2915,1.57207 1.3822,3.65591 -8.9872,9.14129 -12.1864,6.4465 -1.6869,-1.42111 -2.529,-1.22411 -3.2821,0.76786 -0.6763,1.78851 -3.3325,2.67943 -7.9889,2.67943 -8.4906,0 -9.1049,3.03019 -2.5874,12.76527 l 4.3883,6.55513 -3.8196,0 c -2.1008,0 -5.2435,-1.30808 -6.984,-2.90682 -2.9445,-2.70483 -3.1646,-2.70483 -3.1646,0 0,3.29888 -3.5637,3.85601 -6.3801,0.99739 -1.3547,-1.37499 -2.2067,-1.37499 -3.0439,0 -1.8008,2.95754 -6.1496,2.25223 -6.1496,-0.99739 0,-2.70483 -0.2199,-2.70483 -3.1644,0 -2.8944,2.65873 -8.9485,4.0599 -8.9485,2.07108 z m 10.3823,-50.09988 c 0,-0.96602 -0.7326,-1.75641 -1.6281,-1.75641 -0.8955,0 -2.1096,0.79039 -2.6977,1.75641 -0.5882,0.96603 0.1442,1.7564 1.6282,1.7564 1.4838,0 2.6976,-0.79037 2.6976,-1.7564 z m -788.457,14.8901 c -3.96812,-10.496 5.78168,-40.28538 16.6414,-50.84592 l 5.3323,-5.18537 -0.47722,28.9135 -0.47723,28.9135 -9.97079,0.52739 c -7.92312,0.41906 -10.19213,-0.0579 -11.04846,-2.3231 z m 52.48917,1.53762 c -0.6532,-0.66306 -1.1877,-16.86638 -1.1877,-36.0074 l 0,-34.8018 4.7157,-1.20136 c 7.1869,-1.83089 27.6794,2.4049 37.2715,7.70399 19.39563,10.71495 33.57553,35.76276 32.10603,56.71293 l -0.5507,7.85173 -35.58353,0.47375 c -19.571,0.26054 -36.118,-0.0688 -36.7713,-0.73184 z"
       id="path3347-8"
       inkscape:connector-curvature="0" />
  </g>
</svg>
