<?xml version="1.0" encoding="UTF-8" standalone="no"?>
<svg
   xmlns:dc="http://purl.org/dc/elements/1.1/"
   xmlns:cc="http://creativecommons.org/ns#"
   xmlns:rdf="http://www.w3.org/1999/02/22-rdf-syntax-ns#"
   xmlns:svg="http://www.w3.org/2000/svg"
   xmlns="http://www.w3.org/2000/svg"
   version="1.1"
   id="svg2"
   viewBox="0 0 1417.3228 1417.3228"
   height="400mm"
   width="400mm">
  <defs
     id="defs4" />
  <metadata
     id="metadata7">
    <rdf:RDF>
      <cc:Work
         rdf:about="">
        <dc:format>image/svg+xml</dc:format>
        <dc:type
           rdf:resource="http://purl.org/dc/dcmitype/StillImage" />
        <dc:title></dc:title>
      </cc:Work>
    </rdf:RDF>
  </metadata>
  <g
     transform="translate(0,364.96063)"
     id="layer1">
    <path
       id="path3347"
       d="m 662.11614,1044.2048 c -20.79597,-1.5122 -45.63899,-3.9251 -55.2067,-5.3624 l -17.3958,-2.6134 0,-228.48865 0,-228.48877 389.6598,0 389.65976,0 -2.5688,10.31108 c -7.6232,30.5992 -42.6256,98.18333 -77.1902,149.04197 -140.0988,206.1427 -380.85144,323.49347 -626.95806,305.60017 z M 210.99055,835.15383 C 139.57231,762.02844 93.179776,690.70775 59.775322,602.68585 l -8.893335,-23.43427 102.760013,0 102.76003,0 0,148.1046 c 0,81.45753 -1.36025,148.1046 -3.02276,148.1046 -1.66251,0 -20.73744,-18.13813 -42.38872,-40.30695 z M 14.04657,433.95909 C 9.3641359,422.04849 11.044147,278.77764 16.277891,243.6728 21.506755,208.60074 36.642441,144.56331 45.07992,121.81459 69.737121,55.335095 85.90702,20.747946 111.63715,-20.550328 c 34.94506,-56.088729 86.2753,-118.688332 124.2584,-151.538892 l 20.50648,-17.73548 0,315.1727 0,315.17269 -119.88795,0 c -110.701076,0 -120.085609,-0.50281 -122.46751,-6.5616 z m 575.46707,-386.727682 0,-393.289298 8.42136,-2.09981 c 23.3158,-5.81362 99.09233,-10.58929 135.79228,-8.55805 165.11634,9.13871 296.80062,58.86741 419.73852,158.50826 121.1065,98.15649 205.4837,235.63786 241.282,393.13701 9.4604,41.62201 11.4009,59.44634 13.2827,122.00283 1.2121,40.29273 0.9933,84.58351 -0.4863,98.42395 l -2.6901,25.16439 -407.67017,0 -407.67029,0 0,-393.289282 z"
       style="fill:#000000" />
  </g>
</svg>
