<?xml version="1.0" encoding="UTF-8" standalone="no"?>
<svg
   xmlns:dc="http://purl.org/dc/elements/1.1/"
   xmlns:cc="http://creativecommons.org/ns#"
   xmlns:rdf="http://www.w3.org/1999/02/22-rdf-syntax-ns#"
   xmlns:svg="http://www.w3.org/2000/svg"
   xmlns="http://www.w3.org/2000/svg"
   version="1.1"
   id="svg2"
   viewBox="0 0 82.308069 82.308068"
   height="23.229166mm"
   width="23.229166mm">
  <defs
     id="defs4" />
  <metadata
     id="metadata7">
    <rdf:RDF>
      <cc:Work
         rdf:about="">
        <dc:format>image/svg+xml</dc:format>
        <dc:type
           rdf:resource="http://purl.org/dc/dcmitype/StillImage" />
        <dc:title></dc:title>
      </cc:Work>
    </rdf:RDF>
  </metadata>
  <g
     transform="translate(-335.98882,-508.35103)"
     id="layer1">
    <path
       id="path3347"
       d="m 385.24056,564.7544 c -1.33544,-1.44021 -2.42807,-3.33087 -2.42807,-4.20147 0,-1.29372 -0.74455,-1.52224 -4.0755,-1.25081 -2.24152,0.18265 -5.5682,0.61213 -7.39263,0.9544 -3.836,0.71964 -5.57519,-0.87454 -3.00467,-2.75415 2.46226,-1.80044 1.12911,-4.51882 -1.6904,-3.44685 -1.59053,0.60472 -2.70578,0.38833 -4.18909,-0.81278 -2.39691,-1.9409 -2.23706,-5.04746 0.28461,-5.53139 0.98254,-0.18855 2.07068,-0.79424 2.4181,-1.34596 0.43421,-0.68956 1.09361,-0.61977 2.10938,0.22324 1.2687,1.05293 1.4777,0.93624 1.4777,-0.82504 0,-1.12828 0.44525,-2.88338 0.98944,-3.9002 1.24187,-2.32046 0.36129,-5.27548 -1.73662,-5.8277 -1.46624,-0.38595 -1.46264,-0.42914 0.0441,-0.52901 0.90234,-0.0598 1.64062,-0.7725 1.64062,-1.58374 0,-0.88373 0.63902,-1.35193 1.59413,-1.16799 0.87677,0.16885 2.52794,-0.62681 3.66926,-1.76814 2.82229,-2.82229 6.58278,-3.66869 8.60251,-1.93624 0.88157,0.75617 2.37902,1.65122 3.32767,1.989 1.35827,0.48362 1.68017,1.46026 1.51472,4.59562 -0.11555,2.18982 -0.15344,4.69134 -0.0842,5.55894 0.16244,2.03527 3.57376,3.12164 5.301,1.68815 1.88004,-1.56029 4.15901,0.91223 4.86804,5.28147 l 0.55336,3.40997 -3.18888,-0.44503 c -1.75388,-0.24477 -3.90365,-0.75638 -4.77728,-1.13691 -1.15319,-0.50231 -1.6208,-0.22037 -1.70665,1.02901 -0.34769,5.06032 -0.32485,10.46884 0.0544,12.87255 0.58222,3.69045 -1.2089,4.05985 -4.17499,0.86106 z m -2.42807,-19.0993 c 0,-0.48519 -0.94922,-0.89155 -2.10938,-0.90302 -1.16015,-0.0115 -3.16406,-0.84583 -4.45312,-1.85415 -2.86881,-2.24402 -3.87747,-2.36053 -3.10948,-0.35918 0.31992,0.8337 2.29192,2.28151 4.38221,3.21737 3.73633,1.6728 5.28977,1.64314 5.28977,-0.10102 z m 0.9375,-3.12767 c 0,-0.20377 -2.10938,-1.47345 -4.6875,-2.82152 -5.42215,-2.83516 -6.40463,-2.01095 -1.16934,0.98097 3.29139,1.881 5.85684,2.68721 5.85684,1.84055 z"
       style="fill:#000000" />
  </g>
</svg>
